<?xml version="1.0" encoding="utf-8"?>
<!-- Generator: Adobe Illustrator 15.0.0, SVG Export Plug-In . SVG Version: 6.00 Build 0)  -->
<!DOCTYPE svg PUBLIC "-//W3C//DTD SVG 1.1//EN" "http://www.w3.org/Graphics/SVG/1.1/DTD/svg11.dtd">
<svg version="1.1" id="Layer_1" xmlns="http://www.w3.org/2000/svg" xmlns:xlink="http://www.w3.org/1999/xlink" x="0px" y="0px"
	 width="800px" height="300px" viewBox="0 0 800 300" enable-background="new 0 0 800 300" xml:space="preserve">
<path fill="#E4E2B4" stroke="#E4E2B4" stroke-width="5.9195" stroke-miterlimit="10" d="M154.524,32.385
	c0-4.773,1.643-8.85,4.927-12.239c3.286-3.384,7.284-5.079,11.998-5.079c4.708,0,8.71,1.695,11.994,5.079
	c3.282,3.389,4.931,7.448,4.931,12.181c0,4.733-1.625,8.783-4.868,12.147c-3.243,3.366-7.255,5.05-12.027,5.05
	c-4.773,0-8.793-1.684-12.056-5.05C156.154,41.109,154.524,37.08,154.524,32.385z M184.147,32.448c0-3.591-1.254-6.701-3.762-9.331
	c-2.512-2.634-5.489-3.951-8.937-3.951c-3.448,0-6.417,1.317-8.906,3.951c-2.491,2.629-3.734,5.762-3.734,9.392
	c0,3.634,1.202,6.712,3.614,9.243c2.404,2.53,5.394,3.793,8.966,3.793c3.565,0,6.585-1.274,9.059-3.825
	C182.917,39.172,184.147,36.08,184.147,32.448z"/>
<path fill="#A6A282" stroke="#A6A282" stroke-width="5.9195" stroke-miterlimit="10" d="M112.371,64.133
	c0-8.264,2.844-15.329,8.533-21.195c5.685-5.866,12.607-8.796,20.771-8.796c8.163,0,15.082,2.93,20.771,8.796
	c5.687,5.866,8.531,12.895,8.531,21.089c0,8.193-2.809,15.209-8.428,21.039c-5.613,5.825-12.555,8.738-20.822,8.738
	s-15.227-2.913-20.877-8.738C115.198,79.236,112.371,72.256,112.371,64.133z M163.664,64.239c0-6.216-2.173-11.605-6.514-16.163
	c-4.348-4.553-9.504-6.836-15.475-6.836c-5.972,0-11.111,2.283-15.421,6.836c-4.309,4.558-6.463,9.983-6.463,16.269
	c0,6.289,2.084,11.625,6.253,16.002c4.168,4.382,9.341,6.571,15.523,6.571c6.183,0,11.409-2.207,15.687-6.625
	C161.525,75.879,163.664,70.526,163.664,64.239z"/>
<path fill="#00A8BD" stroke="#00A8BD" stroke-width="5.8722" stroke-miterlimit="10" d="M56.537,37.608
	c0-9.558,3.287-17.723,9.859-24.503C72.973,6.327,80.976,2.936,90.41,2.936c9.435,0,17.435,3.391,24.014,10.169
	c6.573,6.78,9.861,14.904,9.861,24.381c0,9.473-3.249,17.579-9.74,24.316c-6.493,6.736-14.517,10.107-24.071,10.107
	c-9.556,0-17.603-3.371-24.135-10.107C59.8,55.065,56.537,47.001,56.537,37.608z M115.831,37.729c0-7.187-2.511-13.417-7.534-18.682
	c-5.024-5.268-10.984-7.904-17.887-7.904c-6.901,0-12.844,2.636-17.826,7.904c-4.98,5.265-7.471,11.535-7.471,18.803
	c0,7.27,2.406,13.435,7.227,18.5c4.821,5.065,10.802,7.594,17.949,7.594c7.146,0,13.185-2.551,18.131-7.657
	C113.361,51.186,115.831,45,115.831,37.729z"/>
<path fill="#00649F" stroke="#00649F" stroke-width="5.6605" stroke-miterlimit="10" d="M2.83,99.3
	c0-8.49,2.041-16.333,6.125-23.521c4.084-7.187,9.679-12.822,16.784-16.908c7.104-4.081,14.842-6.122,23.217-6.122
	c8.369,0,16.167,2.022,23.397,6.063c7.229,4.041,12.906,9.636,17.03,16.782c4.121,7.146,6.186,14.904,6.186,23.278
	S93.526,115,89.445,122.147c-4.087,7.15-9.701,12.765-16.846,16.851c-7.146,4.081-14.905,6.122-23.275,6.122
	c-8.375,0-16.153-2.023-23.337-6.064c-7.188-4.045-12.845-9.618-16.97-16.725C4.895,115.225,2.83,107.548,2.83,99.3z M86.38,98.932
	c0-10.536-3.652-19.435-10.963-26.708c-7.31-7.265-16.11-10.901-26.401-10.901c-10.535,0-19.339,3.657-26.4,10.964
	C15.552,79.596,12.019,88.5,12.019,98.995s3.634,19.377,10.904,26.645c7.268,7.272,16.05,10.904,26.34,10.904
	s19.047-3.556,26.277-10.657C82.768,118.78,86.38,109.795,86.38,98.932z"/>
<path fill="#323031" stroke="#323031" stroke-width="5.9195" stroke-miterlimit="10" d="M57.081,170.227
	c0-11.276,2.709-21.688,8.131-31.229s12.852-17.026,22.285-22.451c9.435-5.42,19.707-8.131,30.823-8.131
	c11.117,0,21.47,2.688,31.067,8.05c9.595,5.371,17.132,12.801,22.608,22.285c5.476,9.492,8.216,19.789,8.216,30.904
	s-2.712,21.418-8.133,30.906c-5.425,9.487-12.876,16.943-22.365,22.364c-9.489,5.425-19.79,8.132-30.905,8.132
	c-11.116,0-21.443-2.685-30.984-8.052c-9.541-5.364-17.054-12.769-22.528-22.203C59.818,191.37,57.081,181.18,57.081,170.227z
	 M168.011,169.736c0-13.987-4.855-25.804-14.556-35.458c-9.71-9.65-21.392-14.477-35.055-14.477
	c-13.986,0-25.672,4.854-35.049,14.558c-9.381,9.708-14.069,21.53-14.069,35.458c0,13.938,4.82,25.729,14.475,35.384
	c9.647,9.649,21.308,14.473,34.967,14.473c13.666,0,25.297-4.72,34.892-14.149C163.213,196.088,168.011,184.16,168.011,169.736z"/>
<g>
	<g>
		<path fill="#6D6E70" d="M216.571,164.37c1.097,0,2.081,0.207,2.952,0.614c0.871,0.414,1.608,0.97,2.211,1.668
			c0.604,0.701,1.066,1.516,1.389,2.449c0.323,0.932,0.483,1.92,0.483,2.963c0,1.057-0.161,2.05-0.483,2.982
			c-0.322,0.932-0.785,1.75-1.389,2.447c-0.604,0.701-1.341,1.254-2.211,1.658s-1.855,0.605-2.952,0.605
			c-1.098,0-2.083-0.201-2.953-0.605c-0.871-0.404-1.608-0.957-2.211-1.658c-0.604-0.697-1.066-1.516-1.389-2.447
			c-0.322-0.934-0.483-1.927-0.483-2.982c0-1.043,0.161-2.031,0.483-2.963c0.323-0.935,0.786-1.748,1.389-2.449
			c0.604-0.698,1.34-1.254,2.211-1.668C214.488,164.577,215.473,164.37,216.571,164.37z M216.571,166.469
			c-0.782,0-1.459,0.156-2.027,0.471c-0.57,0.315-1.033,0.738-1.389,1.269c-0.356,0.526-0.621,1.129-0.792,1.799
			c-0.17,0.675-0.257,1.356-0.257,2.06c0,0.699,0.087,1.384,0.257,2.056c0.172,0.673,0.436,1.274,0.792,1.8
			c0.356,0.531,0.819,0.951,1.389,1.268c0.568,0.314,1.245,0.474,2.027,0.474c0.781,0,1.456-0.158,2.026-0.474
			c0.568-0.315,1.031-0.735,1.389-1.268c0.356-0.525,0.62-1.127,0.792-1.8c0.17-0.672,0.257-1.356,0.257-2.056
			c0-0.701-0.086-1.385-0.257-2.06c-0.172-0.67-0.437-1.272-0.792-1.799c-0.357-0.528-0.82-0.952-1.389-1.269
			C218.027,166.625,217.352,166.469,216.571,166.469z"/>
		<path fill="#6D6E70" d="M228.832,164.721h6.48c1.042,0,1.893,0.149,2.551,0.451c0.659,0.301,1.167,0.678,1.522,1.13
			c0.357,0.454,0.6,0.948,0.73,1.483c0.13,0.535,0.196,1.029,0.196,1.479c0,0.454-0.065,0.944-0.196,1.476
			c-0.13,0.524-0.373,1.016-0.73,1.47c-0.356,0.454-0.864,0.827-1.522,1.121c-0.658,0.294-1.509,0.441-2.551,0.441h-3.909v5.638
			h-2.571V164.721z M231.403,171.673h3.766c0.288,0,0.582-0.04,0.884-0.124c0.301-0.082,0.58-0.215,0.833-0.402
			c0.253-0.184,0.458-0.431,0.617-0.737c0.157-0.31,0.237-0.697,0.237-1.162c0-0.479-0.07-0.879-0.207-1.195
			c-0.137-0.313-0.322-0.563-0.555-0.751c-0.234-0.185-0.501-0.31-0.802-0.38c-0.302-0.069-0.625-0.103-0.967-0.103h-3.806V171.673
			L231.403,171.673z"/>
		<path fill="#6D6E70" d="M245.435,164.721h10.575v2.219h-8.004v3.849h7.407v2.101h-7.407v4.301h8.147v2.221h-10.719
			L245.435,164.721L245.435,164.721z"/>
		<path fill="#6D6E70" d="M261.173,164.721h2.716l6.707,10.82h0.041v-10.82h2.449v14.688h-2.716l-6.686-10.801h-0.062v10.801h-2.448
			L261.173,164.721L261.173,164.721z"/>
		<path fill="#6D6E70" d="M289.297,174.512c0,0.564,0.096,1.043,0.288,1.44s0.459,0.724,0.802,0.978
			c0.342,0.254,0.737,0.438,1.183,0.555c0.446,0.117,0.929,0.177,1.451,0.177c0.562,0,1.042-0.065,1.44-0.195
			c0.397-0.131,0.719-0.299,0.966-0.506c0.247-0.205,0.425-0.44,0.535-0.708s0.165-0.537,0.165-0.812
			c0-0.562-0.127-0.979-0.381-1.244c-0.254-0.27-0.532-0.457-0.834-0.564c-0.521-0.193-1.128-0.373-1.82-0.547
			c-0.693-0.173-1.546-0.393-2.562-0.668c-0.63-0.166-1.155-0.381-1.573-0.648c-0.419-0.268-0.752-0.563-0.998-0.895
			c-0.247-0.33-0.422-0.682-0.525-1.05c-0.103-0.371-0.154-0.746-0.154-1.134c0-0.738,0.154-1.379,0.463-1.924
			c0.308-0.539,0.716-0.988,1.224-1.346c0.507-0.357,1.083-0.622,1.729-0.794c0.645-0.17,1.295-0.256,1.954-0.256
			c0.769,0,1.492,0.101,2.171,0.297c0.679,0.199,1.275,0.498,1.79,0.896c0.515,0.398,0.923,0.889,1.224,1.474
			c0.302,0.582,0.453,1.258,0.453,2.024h-2.572c-0.068-0.946-0.39-1.617-0.966-2.008s-1.31-0.584-2.201-0.584
			c-0.302,0-0.61,0.031-0.926,0.092c-0.316,0.062-0.604,0.164-0.864,0.309c-0.26,0.145-0.477,0.339-0.648,0.587
			c-0.172,0.247-0.257,0.555-0.257,0.926c0,0.521,0.162,0.929,0.484,1.226c0.321,0.295,0.744,0.518,1.265,0.67
			c0.054,0.014,0.27,0.072,0.647,0.173c0.377,0.104,0.799,0.216,1.265,0.339c0.466,0.124,0.922,0.243,1.369,0.359
			c0.445,0.117,0.764,0.203,0.956,0.26c0.48,0.15,0.899,0.355,1.255,0.617c0.356,0.261,0.655,0.558,0.896,0.895
			c0.239,0.338,0.418,0.697,0.535,1.078c0.116,0.385,0.174,0.77,0.174,1.152c0,0.824-0.167,1.526-0.503,2.11
			c-0.337,0.582-0.779,1.06-1.327,1.431c-0.549,0.367-1.173,0.641-1.872,0.811c-0.7,0.174-1.413,0.259-2.141,0.259
			c-0.836,0-1.625-0.103-2.365-0.31c-0.74-0.205-1.385-0.521-1.934-0.947c-0.55-0.424-0.988-0.968-1.317-1.633
			c-0.33-0.666-0.501-1.452-0.515-2.357h2.571V174.512z"/>
		<path fill="#6D6E70" d="M310.078,164.37c1.097,0,2.081,0.207,2.952,0.614c0.871,0.414,1.608,0.97,2.211,1.668
			c0.604,0.701,1.066,1.516,1.389,2.449c0.323,0.932,0.483,1.92,0.483,2.963c0,1.057-0.161,2.05-0.483,2.982
			c-0.322,0.932-0.785,1.75-1.389,2.447c-0.604,0.701-1.34,1.254-2.211,1.658c-0.871,0.404-1.855,0.605-2.952,0.605
			c-1.098,0-2.082-0.201-2.953-0.605s-1.608-0.957-2.211-1.658c-0.604-0.697-1.066-1.516-1.389-2.447
			c-0.323-0.934-0.483-1.927-0.483-2.982c0-1.043,0.161-2.031,0.483-2.963c0.322-0.935,0.785-1.748,1.389-2.449
			c0.604-0.698,1.34-1.254,2.211-1.668C307.996,164.577,308.98,164.37,310.078,164.37z M310.078,166.469
			c-0.782,0-1.458,0.156-2.027,0.471c-0.569,0.315-1.032,0.738-1.389,1.269c-0.356,0.526-0.62,1.129-0.792,1.799
			c-0.171,0.675-0.258,1.356-0.258,2.06c0,0.699,0.087,1.384,0.258,2.056c0.172,0.673,0.436,1.274,0.792,1.8
			c0.356,0.531,0.819,0.951,1.389,1.268c0.569,0.314,1.245,0.474,2.027,0.474c0.781,0,1.456-0.158,2.026-0.474
			c0.568-0.315,1.032-0.735,1.389-1.268c0.356-0.525,0.621-1.127,0.792-1.8c0.171-0.672,0.257-1.356,0.257-2.056
			c0-0.701-0.086-1.385-0.257-2.06c-0.172-0.67-0.436-1.272-0.792-1.799c-0.357-0.528-0.82-0.952-1.389-1.269
			C311.534,166.625,310.858,166.469,310.078,166.469z"/>
		<path fill="#6D6E70" d="M322.174,164.721h2.572v8.557c0,0.494,0.024,0.994,0.072,1.502c0.047,0.509,0.186,0.965,0.411,1.369
			c0.225,0.403,0.568,0.736,1.028,0.998c0.459,0.261,1.108,0.391,1.945,0.391c0.836,0,1.484-0.13,1.944-0.391
			c0.46-0.262,0.803-0.595,1.028-0.998c0.227-0.404,0.364-0.86,0.412-1.369c0.047-0.508,0.072-1.008,0.072-1.502v-8.557h2.571v9.399
			c0,0.946-0.144,1.769-0.431,2.47c-0.288,0.699-0.697,1.285-1.225,1.758c-0.528,0.476-1.162,0.827-1.902,1.062
			c-0.741,0.233-1.564,0.351-2.469,0.351c-0.906,0-1.728-0.115-2.469-0.351c-0.742-0.233-1.375-0.586-1.903-1.062
			c-0.528-0.473-0.936-1.059-1.224-1.758c-0.289-0.701-0.433-1.523-0.433-2.47L322.174,164.721L322.174,164.721z"/>
		<path fill="#6D6E70" d="M340.073,164.721h7.014c1.618,0,2.832,0.348,3.643,1.047c0.809,0.701,1.213,1.674,1.213,2.922
			c0,0.701-0.101,1.281-0.308,1.738c-0.207,0.459-0.445,0.832-0.719,1.11c-0.276,0.282-0.548,0.485-0.813,0.606
			c-0.27,0.127-0.463,0.207-0.586,0.248v0.039c0.218,0.029,0.456,0.1,0.708,0.207c0.256,0.11,0.492,0.285,0.71,0.525
			c0.22,0.238,0.402,0.554,0.546,0.936c0.144,0.385,0.216,0.862,0.216,1.44c0,0.864,0.065,1.649,0.195,2.354
			c0.131,0.707,0.333,1.211,0.607,1.513h-2.755c-0.193-0.314-0.306-0.665-0.341-1.05c-0.034-0.385-0.049-0.754-0.049-1.11
			c0-0.672-0.043-1.251-0.126-1.738c-0.081-0.487-0.231-0.893-0.452-1.214c-0.218-0.32-0.517-0.561-0.895-0.71
			s-0.861-0.228-1.45-0.228h-3.787v6.05h-2.571V164.721z M342.644,171.407h4.218c0.822,0,1.447-0.196,1.872-0.589
			c0.425-0.391,0.636-0.977,0.636-1.758c0-0.467-0.067-0.849-0.204-1.143c-0.137-0.295-0.326-0.523-0.564-0.689
			c-0.243-0.164-0.517-0.274-0.825-0.328c-0.308-0.055-0.627-0.082-0.955-0.082h-4.178V171.407L342.644,171.407z"/>
		<path fill="#6D6E70" d="M367.353,169.391c-0.11-0.428-0.261-0.817-0.454-1.174c-0.19-0.357-0.438-0.666-0.739-0.926
			c-0.303-0.262-0.654-0.463-1.059-0.607c-0.404-0.144-0.877-0.215-1.411-0.215c-0.782,0-1.456,0.156-2.027,0.471
			c-0.568,0.315-1.031,0.738-1.389,1.269c-0.354,0.526-0.62,1.129-0.791,1.799c-0.171,0.675-0.257,1.357-0.257,2.06
			c0,0.699,0.086,1.384,0.257,2.056c0.171,0.673,0.437,1.274,0.791,1.8c0.357,0.531,0.82,0.951,1.389,1.268
			c0.571,0.314,1.245,0.474,2.027,0.474c0.575,0,1.083-0.101,1.523-0.299c0.438-0.2,0.815-0.476,1.133-0.822
			c0.314-0.351,0.562-0.758,0.739-1.226c0.178-0.465,0.295-0.967,0.349-1.502h2.513c-0.057,0.877-0.245,1.683-0.566,2.406
			c-0.324,0.728-0.76,1.355-1.309,1.883c-0.548,0.529-1.19,0.937-1.933,1.228c-0.741,0.287-1.558,0.431-2.449,0.431
			c-1.097,0-2.081-0.201-2.953-0.605c-0.87-0.404-1.606-0.957-2.212-1.658c-0.602-0.697-1.064-1.516-1.388-2.447
			c-0.321-0.934-0.481-1.927-0.481-2.982c0-1.043,0.16-2.031,0.481-2.963c0.324-0.935,0.787-1.748,1.388-2.448
			c0.605-0.699,1.342-1.255,2.212-1.668c0.872-0.408,1.856-0.615,2.953-0.615c0.822,0,1.598,0.112,2.326,0.34
			c0.726,0.228,1.368,0.556,1.921,0.986c0.558,0.432,1.007,0.957,1.349,1.571c0.344,0.621,0.558,1.326,0.638,2.123h-2.571V169.391z"
			/>
		<path fill="#6D6E70" d="M375.171,164.721h10.574v2.219h-8.003v3.849h7.407v2.101h-7.407v4.301h8.146v2.221H375.17L375.171,164.721
			L375.171,164.721z"/>
		<path fill="#6D6E70" d="M399.55,164.721h2.571v5.842h6.686v-5.842h2.573v14.688h-2.573v-6.625h-6.686v6.625h-2.571V164.721z"/>
		<path fill="#6D6E70" d="M421.275,164.721h2.737l5.658,14.688h-2.76l-1.375-3.889h-5.865l-1.378,3.889h-2.654L421.275,164.721z
			 M420.373,173.566h4.482l-2.199-6.315h-0.063L420.373,173.566z"/>
		<path fill="#6D6E70" d="M433.951,164.721h7.014c1.618,0,2.832,0.348,3.644,1.047c0.81,0.701,1.214,1.674,1.214,2.922
			c0,0.701-0.104,1.281-0.312,1.738c-0.206,0.459-0.443,0.832-0.719,1.11c-0.274,0.282-0.546,0.485-0.813,0.606
			c-0.268,0.127-0.463,0.207-0.584,0.248v0.039c0.219,0.029,0.453,0.1,0.707,0.207c0.256,0.11,0.492,0.285,0.711,0.525
			c0.219,0.238,0.402,0.554,0.547,0.936c0.144,0.385,0.216,0.862,0.216,1.44c0,0.864,0.062,1.649,0.192,2.354
			c0.131,0.707,0.332,1.211,0.606,1.513h-2.755c-0.193-0.314-0.307-0.665-0.34-1.05s-0.053-0.754-0.053-1.11
			c0-0.672-0.04-1.251-0.123-1.738s-0.23-0.893-0.451-1.214c-0.221-0.32-0.518-0.561-0.896-0.71
			c-0.377-0.149-0.862-0.228-1.451-0.228h-3.784v6.05h-2.57V164.721z M436.521,171.407h4.217c0.821,0,1.446-0.196,1.874-0.589
			c0.422-0.391,0.636-0.977,0.636-1.758c0-0.467-0.069-0.849-0.204-1.143c-0.14-0.295-0.328-0.523-0.566-0.689
			c-0.24-0.164-0.515-0.274-0.822-0.328c-0.311-0.055-0.629-0.082-0.957-0.082h-4.177V171.407L436.521,171.407z"/>
		<path fill="#6D6E70" d="M451.312,164.721h6.092c1.123,0,2.099,0.189,2.921,0.574c0.823,0.385,1.492,0.908,2.014,1.573
			c0.522,0.665,0.91,1.442,1.164,2.337c0.254,0.891,0.383,1.844,0.383,2.859c0,1.015-0.129,1.969-0.383,2.857
			c-0.254,0.893-0.643,1.672-1.164,2.337c-0.521,0.666-1.189,1.189-2.014,1.573c-0.822,0.382-1.798,0.575-2.921,0.575h-6.092
			V164.721z M453.884,177.311h2.53c1.003,0,1.82-0.137,2.459-0.4c0.638-0.27,1.137-0.639,1.501-1.11
			c0.364-0.474,0.611-1.028,0.741-1.667c0.131-0.639,0.195-1.326,0.195-2.066c0-0.742-0.064-1.431-0.195-2.068
			c-0.13-0.639-0.377-1.195-0.741-1.667s-0.863-0.843-1.501-1.11c-0.639-0.268-1.456-0.4-2.459-0.4h-2.53V177.311z"/>
		<path fill="#6D6E70" d="M467.607,164.721h2.612l2.654,11.231h0.04l2.962-11.231h2.634l2.882,11.231h0.04l2.737-11.231h2.611
			l-4.053,14.688h-2.613l-2.939-11.232h-0.043l-3.004,11.232h-2.652L467.607,164.721z"/>
		<path fill="#6D6E70" d="M494.763,164.721h2.737l5.659,14.688h-2.76l-1.376-3.889h-5.865l-1.378,3.889h-2.654L494.763,164.721z
			 M493.86,173.566h4.482l-2.2-6.315h-0.062L493.86,173.566z"/>
		<path fill="#6D6E70" d="M507.438,164.721h7.018c1.618,0,2.831,0.348,3.641,1.047c0.81,0.701,1.213,1.674,1.213,2.922
			c0,0.701-0.103,1.281-0.308,1.738c-0.207,0.459-0.447,0.832-0.722,1.11c-0.273,0.282-0.543,0.485-0.812,0.606
			c-0.268,0.127-0.463,0.207-0.587,0.248v0.039c0.219,0.029,0.456,0.1,0.71,0.207c0.252,0.11,0.49,0.285,0.708,0.525
			c0.222,0.238,0.402,0.554,0.546,0.936c0.146,0.385,0.217,0.862,0.217,1.44c0,0.864,0.064,1.649,0.195,2.354
			c0.13,0.707,0.332,1.211,0.606,1.513h-2.758c-0.19-0.314-0.305-0.665-0.339-1.05s-0.051-0.754-0.051-1.11
			c0-0.672-0.043-1.251-0.124-1.738c-0.083-0.487-0.232-0.893-0.453-1.214c-0.219-0.32-0.518-0.561-0.895-0.71
			c-0.378-0.149-0.861-0.228-1.45-0.228h-3.786v6.05h-2.57V164.721L507.438,164.721z M510.009,171.407h4.218
			c0.823,0,1.447-0.196,1.872-0.589c0.426-0.391,0.64-0.977,0.64-1.758c0-0.467-0.07-0.849-0.207-1.143
			c-0.138-0.295-0.326-0.523-0.566-0.689c-0.238-0.164-0.512-0.274-0.822-0.328c-0.308-0.055-0.627-0.082-0.955-0.082h-4.178
			L510.009,171.407L510.009,171.407z"/>
		<path fill="#6D6E70" d="M524.801,164.721h10.573v2.219h-8.003v3.849h7.407v2.101h-7.407v4.301h8.146v2.221H524.8L524.801,164.721
			L524.801,164.721z"/>
		<path fill="#6D6E70" d="M553.171,164.721h2.737l5.656,14.688h-2.756l-1.38-3.889h-5.862l-1.378,3.889h-2.654L553.171,164.721z
			 M552.268,173.566h4.483l-2.2-6.315h-0.062L552.268,173.566z"/>
		<path fill="#6D6E70" d="M567.532,174.512c0,0.564,0.097,1.043,0.29,1.44c0.19,0.397,0.458,0.724,0.802,0.978
			c0.342,0.254,0.737,0.438,1.183,0.555c0.446,0.117,0.929,0.177,1.449,0.177c0.564,0,1.043-0.065,1.44-0.195
			c0.397-0.131,0.722-0.299,0.969-0.506c0.245-0.205,0.425-0.44,0.535-0.708c0.106-0.268,0.164-0.537,0.164-0.812
			c0-0.562-0.128-0.979-0.383-1.244c-0.254-0.27-0.53-0.457-0.831-0.564c-0.521-0.193-1.129-0.373-1.822-0.547
			c-0.692-0.173-1.546-0.393-2.561-0.668c-0.632-0.166-1.156-0.381-1.574-0.648c-0.419-0.267-0.752-0.563-0.998-0.895
			c-0.245-0.33-0.422-0.682-0.523-1.05c-0.104-0.371-0.155-0.746-0.155-1.134c0-0.738,0.155-1.379,0.463-1.924
			c0.311-0.539,0.718-0.988,1.226-1.346s1.083-0.622,1.729-0.794c0.646-0.17,1.296-0.256,1.955-0.256
			c0.768,0,1.489,0.101,2.169,0.297c0.682,0.199,1.276,0.498,1.791,0.896c0.516,0.398,0.921,0.889,1.226,1.474
			c0.301,0.582,0.45,1.258,0.45,2.024h-2.569c-0.07-0.946-0.393-1.617-0.969-2.008c-0.575-0.391-1.31-0.584-2.2-0.584
			c-0.302,0-0.611,0.031-0.927,0.092c-0.316,0.062-0.604,0.164-0.864,0.309c-0.262,0.145-0.478,0.339-0.647,0.587
			c-0.171,0.247-0.256,0.555-0.256,0.926c0,0.521,0.159,0.929,0.482,1.226c0.321,0.295,0.744,0.518,1.266,0.67
			c0.054,0.014,0.27,0.072,0.646,0.173c0.379,0.104,0.801,0.216,1.266,0.339c0.468,0.124,0.924,0.243,1.369,0.359
			c0.444,0.117,0.764,0.203,0.957,0.26c0.479,0.15,0.896,0.355,1.254,0.617c0.357,0.261,0.654,0.558,0.895,0.895
			c0.24,0.338,0.418,0.697,0.535,1.078c0.117,0.385,0.176,0.77,0.176,1.152c0,0.824-0.169,1.526-0.504,2.11
			c-0.337,0.582-0.778,1.06-1.328,1.431c-0.549,0.367-1.171,0.641-1.872,0.811c-0.698,0.174-1.41,0.259-2.14,0.259
			c-0.836,0-1.625-0.103-2.366-0.31c-0.739-0.205-1.385-0.521-1.933-0.947c-0.549-0.424-0.989-0.968-1.317-1.633
			c-0.33-0.666-0.501-1.452-0.515-2.357h2.569V174.512z"/>
		<path fill="#6D6E70" d="M583.744,174.512c0,0.564,0.097,1.043,0.29,1.44c0.19,0.397,0.459,0.724,0.803,0.978
			c0.341,0.254,0.737,0.438,1.182,0.555c0.445,0.117,0.93,0.177,1.45,0.177c0.563,0,1.042-0.065,1.44-0.195
			c0.396-0.131,0.721-0.299,0.968-0.506c0.245-0.205,0.426-0.44,0.535-0.708c0.107-0.268,0.164-0.537,0.164-0.812
			c0-0.562-0.128-0.979-0.382-1.244c-0.255-0.27-0.53-0.457-0.831-0.564c-0.521-0.193-1.129-0.373-1.823-0.547
			c-0.692-0.173-1.546-0.393-2.56-0.668c-0.633-0.166-1.157-0.381-1.575-0.648c-0.418-0.267-0.751-0.563-0.998-0.895
			c-0.245-0.33-0.42-0.682-0.523-1.05c-0.104-0.371-0.155-0.746-0.155-1.134c0-0.738,0.155-1.379,0.464-1.924
			c0.311-0.539,0.717-0.988,1.225-1.346s1.084-0.622,1.729-0.794c0.646-0.17,1.298-0.256,1.955-0.256
			c0.768,0,1.49,0.101,2.169,0.297c0.682,0.199,1.276,0.498,1.791,0.896c0.516,0.398,0.922,0.889,1.226,1.474
			c0.302,0.582,0.452,1.258,0.452,2.024h-2.571c-0.069-0.946-0.391-1.617-0.969-2.008c-0.575-0.391-1.309-0.584-2.2-0.584
			c-0.301,0-0.611,0.031-0.926,0.092c-0.316,0.062-0.604,0.164-0.865,0.309s-0.477,0.339-0.647,0.587
			c-0.171,0.247-0.256,0.555-0.256,0.926c0,0.521,0.159,0.929,0.483,1.226c0.321,0.295,0.744,0.518,1.266,0.67
			c0.055,0.014,0.271,0.072,0.646,0.173c0.378,0.104,0.801,0.216,1.266,0.339c0.467,0.124,0.924,0.243,1.368,0.359
			c0.445,0.117,0.765,0.203,0.958,0.26c0.479,0.15,0.896,0.355,1.254,0.617c0.358,0.261,0.653,0.558,0.896,0.895
			c0.239,0.338,0.418,0.697,0.533,1.078c0.117,0.385,0.177,0.77,0.177,1.152c0,0.824-0.169,1.526-0.504,2.11
			c-0.338,0.582-0.779,1.06-1.328,1.431c-0.549,0.367-1.172,0.641-1.872,0.811c-0.698,0.174-1.411,0.259-2.14,0.259
			c-0.836,0-1.625-0.103-2.366-0.31c-0.739-0.205-1.385-0.521-1.934-0.947c-0.548-0.424-0.987-0.968-1.315-1.633
			c-0.331-0.666-0.501-1.452-0.516-2.357h2.568V174.512z"/>
		<path fill="#6D6E70" d="M604.525,164.37c1.097,0,2.081,0.207,2.95,0.614c0.872,0.414,1.608,0.97,2.214,1.668
			c0.603,0.701,1.064,1.516,1.39,2.449c0.321,0.932,0.481,1.92,0.481,2.963c0,1.057-0.16,2.05-0.481,2.982
			c-0.324,0.932-0.787,1.75-1.39,2.447c-0.604,0.701-1.342,1.254-2.214,1.658c-0.869,0.404-1.854,0.605-2.95,0.605
			c-1.1,0-2.081-0.201-2.953-0.605s-1.608-0.957-2.211-1.658c-0.604-0.697-1.067-1.516-1.39-2.447
			c-0.32-0.934-0.482-1.927-0.482-2.982c0-1.043,0.162-2.031,0.482-2.963c0.321-0.935,0.784-1.748,1.39-2.449
			c0.603-0.698,1.339-1.254,2.211-1.668C602.444,164.577,603.426,164.37,604.525,164.37z M604.525,166.469
			c-0.782,0-1.458,0.156-2.027,0.471c-0.568,0.315-1.031,0.738-1.389,1.269c-0.357,0.526-0.62,1.129-0.791,1.799
			c-0.173,0.675-0.258,1.356-0.258,2.06c0,0.699,0.085,1.384,0.258,2.056c0.171,0.673,0.434,1.274,0.791,1.8
			c0.356,0.531,0.819,0.951,1.389,1.268c0.569,0.314,1.245,0.474,2.027,0.474c0.781,0,1.456-0.158,2.026-0.474
			c0.568-0.315,1.031-0.735,1.388-1.268c0.356-0.525,0.621-1.127,0.793-1.8c0.171-0.672,0.256-1.356,0.256-2.056
			c0-0.701-0.085-1.385-0.256-2.06c-0.172-0.67-0.437-1.272-0.793-1.799c-0.355-0.528-0.818-0.952-1.388-1.269
			C605.981,166.625,605.307,166.469,604.525,166.469z"/>
		<path fill="#6D6E70" d="M626.702,169.391c-0.11-0.428-0.261-0.817-0.452-1.174c-0.192-0.357-0.438-0.666-0.741-0.926
			c-0.301-0.262-0.653-0.463-1.059-0.607c-0.404-0.144-0.874-0.215-1.409-0.215c-0.781,0-1.458,0.156-2.027,0.471
			c-0.567,0.315-1.03,0.738-1.389,1.269c-0.357,0.526-0.62,1.129-0.791,1.799c-0.173,0.675-0.258,1.357-0.258,2.06
			c0,0.699,0.085,1.384,0.258,2.056c0.171,0.673,0.434,1.274,0.791,1.8c0.357,0.531,0.82,0.951,1.389,1.268
			c0.569,0.314,1.246,0.474,2.027,0.474c0.575,0,1.084-0.101,1.521-0.299c0.438-0.2,0.816-0.476,1.134-0.822
			c0.313-0.351,0.562-0.758,0.738-1.226c0.181-0.465,0.295-0.967,0.352-1.502h2.511c-0.057,0.877-0.245,1.683-0.565,2.406
			c-0.321,0.728-0.759,1.355-1.307,1.883c-0.549,0.529-1.193,0.937-1.936,1.228c-0.739,0.287-1.558,0.431-2.447,0.431
			c-1.099,0-2.081-0.201-2.953-0.605c-0.871-0.404-1.607-0.957-2.211-1.658c-0.604-0.697-1.067-1.516-1.389-2.447
			c-0.321-0.934-0.483-1.927-0.483-2.982c0-1.043,0.162-2.031,0.483-2.963c0.32-0.935,0.783-1.748,1.389-2.448
			c0.604-0.699,1.34-1.255,2.211-1.668c0.872-0.408,1.854-0.615,2.953-0.615c0.823,0,1.598,0.112,2.324,0.34
			c0.728,0.228,1.367,0.556,1.924,0.986c0.555,0.432,1.004,0.957,1.348,1.571c0.342,0.621,0.557,1.326,0.64,2.123h-2.574V169.391z"
			/>
		<path fill="#6D6E70" d="M634.52,164.721h2.571v14.688h-2.571V164.721z"/>
		<path fill="#6D6E70" d="M647.049,164.721h2.737l5.656,14.688h-2.755l-1.381-3.889h-5.862l-1.378,3.889h-2.654L647.049,164.721z
			 M646.146,173.566h4.482l-2.2-6.315h-0.062L646.146,173.566z"/>
		<path fill="#6D6E70" d="M656.429,164.721h11.894v2.219h-4.67v12.47h-2.572v-12.47h-4.65L656.429,164.721L656.429,164.721z"/>
		<path fill="#6D6E70" d="M672.912,164.721h2.57v14.688h-2.57V164.721z"/>
		<path fill="#6D6E70" d="M687.764,164.37c1.098,0,2.081,0.207,2.95,0.614c0.872,0.414,1.609,0.97,2.214,1.668
			c0.604,0.701,1.065,1.516,1.39,2.449c0.32,0.932,0.482,1.92,0.482,2.963c0,1.057-0.162,2.05-0.482,2.982
			c-0.323,0.932-0.786,1.75-1.39,2.447c-0.604,0.701-1.342,1.254-2.214,1.658c-0.869,0.404-1.854,0.605-2.95,0.605
			c-1.099,0-2.081-0.201-2.953-0.605c-0.871-0.404-1.608-0.957-2.212-1.658c-0.604-0.697-1.066-1.516-1.389-2.447
			c-0.321-0.934-0.481-1.927-0.481-2.982c0-1.043,0.16-2.031,0.481-2.963c0.321-0.935,0.785-1.748,1.389-2.449
			c0.604-0.698,1.341-1.254,2.212-1.668C685.683,164.577,686.666,164.37,687.764,164.37z M687.764,166.469
			c-0.781,0-1.459,0.156-2.026,0.471c-0.568,0.315-1.031,0.738-1.39,1.269c-0.356,0.526-0.619,1.129-0.791,1.799
			c-0.173,0.675-0.259,1.356-0.259,2.06c0,0.699,0.086,1.384,0.259,2.056c0.172,0.673,0.435,1.274,0.791,1.8
			c0.357,0.531,0.82,0.951,1.39,1.268c0.567,0.314,1.245,0.474,2.026,0.474c0.782,0,1.456-0.158,2.026-0.474
			c0.569-0.315,1.032-0.735,1.387-1.268c0.357-0.525,0.623-1.127,0.794-1.8c0.171-0.672,0.256-1.356,0.256-2.056
			c0-0.701-0.085-1.385-0.256-2.06c-0.171-0.67-0.437-1.272-0.794-1.799c-0.354-0.528-0.816-0.952-1.387-1.269
			C689.22,166.625,688.546,166.469,687.764,166.469z"/>
		<path fill="#6D6E70" d="M699.922,164.721h2.715l6.708,10.82h0.04v-10.82h2.45v14.688h-2.718l-6.687-10.801h-0.062v10.801h-2.447
			V164.721z"/>
	</g>
</g>
<g>
	<g>
		<path fill="#231F20" d="M210.091,88.455c0-6.881,1.29-11.515,3.87-13.906c2.581-2.387,7.406-3.584,14.479-3.584h54.477
			c7.071,0,11.899,1.198,14.479,3.584c2.58,2.391,3.871,7.025,3.871,13.906v38.993c0,6.882-1.291,11.518-3.871,13.907
			c-2.58,2.392-7.408,3.585-14.479,3.585H228.44c-7.073,0-11.898-1.193-14.479-3.585c-2.58-2.39-3.87-7.025-3.87-13.907V88.455
			L210.091,88.455z M227.295,131.033h56.77V84.156h-56.77V131.033z"/>
		<path fill="#231F20" d="M375.814,83.866h-48.601v15.916h46.266c7.086,0,11.949,1.193,14.581,3.583
			c2.634,2.391,3.953,7.025,3.953,13.906v10.178c0,6.882-1.317,11.518-3.944,13.907c-2.627,2.392-7.477,3.585-14.55,3.585h-41.976
			c-7.075,0-11.924-1.193-14.553-3.585c-2.629-2.39-3.942-7.025-3.942-13.907v-2.006l15.197-0.041v5.632h48.571v-16.916h-46.16
			c-7.075,0-11.901-1.196-14.48-3.584c-2.58-2.389-3.87-7.025-3.87-13.907v-8.171c0-6.881,1.29-11.515,3.87-13.906
			c2.58-2.387,7.406-3.584,14.48-3.584h42.002c6.785,0,11.54,1.148,14.267,3.441c2.724,2.294,4.085,6.548,4.085,12.76v1.578
			l-15.196-0.009V83.866L375.814,83.866z"/>
		<path fill="#231F20" d="M404.769,144.94V70.964h17.203v28.674h53.762V70.964h17.35v73.976h-17.35v-31.827h-53.762v31.827H404.769z
			"/>
		<path fill="#231F20" d="M529.803,144.94l-28.526-73.976h17.777l17.781,49.605l19.637-49.605h13.044l20.071,49.605l17.918-49.605
			h17.217l-28.527,73.976h-13.488l-20.358-51.182l-20.645,51.182H529.803z"/>
		<path fill="#231F20" d="M606.174,144.94l41.861-73.976h18.507l42.435,73.976h-19.354l-8.889-16.199h-46.879l-8.602,16.199H606.174
			z M641.167,115.405h32.4L657.652,85.3L641.167,115.405z"/>
	</g>
</g>
<text transform="matrix(0.9 0 0 1 211.5723 44.4258)" font-family="'OratorStd'" font-size="48">I’m a member of</text>
<text transform="matrix(0.9 0 0 1 211.5723 44.4258)" fill="none" stroke="#231F20" stroke-miterlimit="10" font-family="'OratorStd'" font-size="48">I’m a member of</text>
<text transform="matrix(1 0 0 1 600.3662 44.4258)" font-family="'OratorStd'" font-size="48"> </text>
<text transform="matrix(1 0 0 1 600.3662 44.4258)" fill="none" stroke="#231F20" stroke-miterlimit="10" font-family="'OratorStd'" font-size="48"> </text>
</svg>
