<?xml version="1.0" encoding="utf-8"?>
<!-- Generator: Adobe Illustrator 15.0.0, SVG Export Plug-In . SVG Version: 6.00 Build 0)  -->
<!DOCTYPE svg PUBLIC "-//W3C//DTD SVG 1.1//EN" "http://www.w3.org/Graphics/SVG/1.1/DTD/svg11.dtd">
<svg version="1.1" id="Layer_1" xmlns="http://www.w3.org/2000/svg" xmlns:xlink="http://www.w3.org/1999/xlink" x="0px" y="0px"
	 width="800px" height="300px" viewBox="0 0 800 300" enable-background="new 0 0 800 300" xml:space="preserve">
<path fill="#E4E2B4" stroke="#E4E2B4" stroke-width="5.9195" stroke-miterlimit="10" d="M154.523,36.717
	c0-4.773,1.643-8.85,4.928-12.239c3.285-3.384,7.283-5.079,11.997-5.079c4.708,0,8.71,1.695,11.994,5.079
	c3.282,3.389,4.931,7.448,4.931,12.181c0,4.733-1.625,8.783-4.868,12.147c-3.243,3.366-7.255,5.05-12.027,5.05
	c-4.773,0-8.793-1.684-12.056-5.05C156.154,45.441,154.523,41.412,154.523,36.717z M184.146,36.78c0-3.591-1.254-6.701-3.762-9.331
	c-2.512-2.634-5.489-3.951-8.937-3.951c-3.448,0-6.417,1.317-8.906,3.951c-2.491,2.629-3.733,5.762-3.733,9.392
	c0,3.634,1.201,6.712,3.613,9.243c2.404,2.53,5.394,3.793,8.966,3.793c3.565,0,6.585-1.274,9.059-3.825
	C182.916,43.504,184.146,40.412,184.146,36.78z"/>
<path fill="#A6A282" stroke="#A6A282" stroke-width="5.9195" stroke-miterlimit="10" d="M112.37,68.465
	c0-8.264,2.845-15.329,8.533-21.195c5.685-5.866,12.607-8.796,20.771-8.796s15.082,2.93,20.771,8.796
	c5.688,5.866,8.531,12.895,8.531,21.089c0,8.193-2.81,15.209-8.429,21.039c-5.612,5.825-12.555,8.738-20.821,8.738
	c-8.268,0-15.228-2.913-20.878-8.738C115.197,83.568,112.37,76.588,112.37,68.465z M163.664,68.571
	c0-6.216-2.174-11.605-6.515-16.163c-4.348-4.553-9.504-6.836-15.476-6.836c-5.972,0-11.11,2.283-15.421,6.836
	c-4.31,4.558-6.463,9.983-6.463,16.269c0,6.289,2.084,11.625,6.253,16.002c4.168,4.382,9.342,6.571,15.523,6.571
	c6.183,0,11.408-2.207,15.687-6.625C161.525,80.211,163.664,74.858,163.664,68.571z"/>
<path fill="#00A8BD" stroke="#00A8BD" stroke-width="5.8722" stroke-miterlimit="10" d="M56.537,41.94
	c0-9.558,3.286-17.723,9.858-24.503c6.577-6.778,14.579-10.169,24.014-10.169c9.435,0,17.435,3.391,24.015,10.169
	c6.572,6.78,9.861,14.904,9.861,24.381c0,9.473-3.249,17.579-9.74,24.316c-6.492,6.736-14.518,10.107-24.071,10.107
	c-9.556,0-17.603-3.371-24.136-10.107C59.8,59.397,56.537,51.333,56.537,41.94z M115.83,42.061c0-7.187-2.512-13.417-7.534-18.682
	c-5.024-5.268-10.983-7.904-17.887-7.904c-6.901,0-12.845,2.636-17.825,7.904c-4.98,5.265-7.472,11.535-7.472,18.803
	c0,7.27,2.405,13.435,7.227,18.5c4.822,5.065,10.802,7.594,17.949,7.594c7.146,0,13.185-2.551,18.132-7.657
	C113.36,55.518,115.83,49.332,115.83,42.061z"/>
<path fill="#00649F" stroke="#00649F" stroke-width="5.6605" stroke-miterlimit="10" d="M2.83,103.632
	c0-8.49,2.04-16.333,6.125-23.521c4.084-7.187,9.68-12.822,16.784-16.908c7.104-4.081,14.843-6.122,23.217-6.122
	c8.369,0,16.167,2.022,23.397,6.063c7.229,4.041,12.906,9.636,17.03,16.782c4.121,7.146,6.186,14.904,6.186,23.278
	s-2.044,16.127-6.125,23.273c-4.087,7.15-9.7,12.765-16.847,16.851c-7.146,4.081-14.904,6.122-23.275,6.122
	c-8.375,0-16.152-2.023-23.337-6.064c-7.188-4.045-12.845-9.618-16.97-16.725C4.895,119.557,2.83,111.88,2.83,103.632z
	 M86.38,103.264c0-10.536-3.651-19.435-10.964-26.708c-7.309-7.265-16.109-10.901-26.4-10.901c-10.535,0-19.34,3.657-26.4,10.964
	c-7.063,7.308-10.598,16.212-10.598,26.707c0,10.495,3.635,19.377,10.904,26.645c7.268,7.272,16.05,10.904,26.34,10.904
	c10.289,0,19.047-3.556,26.277-10.657C82.768,123.112,86.38,114.127,86.38,103.264z"/>
<path fill="#323031" stroke="#323031" stroke-width="5.9195" stroke-miterlimit="10" d="M57.08,174.559
	c0-11.276,2.709-21.688,8.131-31.229s12.852-17.026,22.285-22.451c9.434-5.42,19.707-8.131,30.822-8.131
	c11.117,0,21.471,2.688,31.068,8.05c9.594,5.371,17.132,12.801,22.607,22.285c5.476,9.492,8.217,19.789,8.217,30.904
	s-2.713,21.418-8.134,30.906c-5.425,9.487-12.876,16.943-22.365,22.364c-9.489,5.425-19.79,8.132-30.905,8.132
	c-11.116,0-21.443-2.685-30.984-8.052c-9.541-5.364-17.053-12.769-22.527-22.203C59.817,195.702,57.08,185.512,57.08,174.559z
	 M168.011,174.068c0-13.987-4.855-25.804-14.556-35.458c-9.71-9.65-21.392-14.477-35.055-14.477
	c-13.986,0-25.673,4.854-35.05,14.558c-9.382,9.708-14.069,21.53-14.069,35.458c0,13.938,4.82,25.729,14.475,35.384
	c9.648,9.649,21.309,14.473,34.968,14.473c13.666,0,25.297-4.72,34.892-14.149C163.213,200.42,168.011,188.492,168.011,174.068z"/>
<g>
	<g>
		<path fill="#6D6E70" d="M216.57,168.702c1.097,0,2.081,0.207,2.951,0.614c0.871,0.414,1.608,0.97,2.212,1.668
			c0.604,0.701,1.066,1.516,1.389,2.449c0.323,0.932,0.483,1.92,0.483,2.963c0,1.057-0.16,2.049-0.483,2.982
			c-0.322,0.932-0.785,1.75-1.389,2.447c-0.604,0.701-1.341,1.254-2.212,1.658c-0.87,0.404-1.854,0.605-2.951,0.605
			c-1.098,0-2.082-0.201-2.953-0.605c-0.871-0.404-1.607-0.957-2.211-1.658c-0.604-0.697-1.066-1.516-1.39-2.447
			c-0.322-0.934-0.483-1.927-0.483-2.982c0-1.043,0.161-2.031,0.483-2.963c0.323-0.935,0.786-1.748,1.39-2.449
			c0.604-0.698,1.34-1.254,2.211-1.668C214.488,168.909,215.473,168.702,216.57,168.702z M216.57,170.801
			c-0.782,0-1.459,0.156-2.027,0.471c-0.57,0.315-1.033,0.738-1.389,1.269c-0.356,0.526-0.621,1.129-0.793,1.799
			c-0.17,0.675-0.257,1.356-0.257,2.06c0,0.699,0.087,1.384,0.257,2.056c0.172,0.673,0.437,1.274,0.793,1.8
			c0.355,0.531,0.818,0.951,1.389,1.268c0.568,0.314,1.245,0.474,2.027,0.474c0.781,0,1.456-0.158,2.025-0.474
			c0.568-0.315,1.031-0.735,1.389-1.268c0.356-0.525,0.621-1.127,0.793-1.8c0.17-0.672,0.257-1.356,0.257-2.056
			c0-0.701-0.087-1.385-0.257-2.06c-0.172-0.67-0.437-1.272-0.793-1.799c-0.357-0.529-0.82-0.952-1.389-1.269
			C218.026,170.958,217.352,170.801,216.57,170.801z"/>
		<path fill="#6D6E70" d="M228.832,169.052h6.479c1.042,0,1.893,0.15,2.551,0.452c0.659,0.301,1.167,0.678,1.522,1.13
			c0.357,0.454,0.6,0.948,0.73,1.483c0.13,0.535,0.195,1.029,0.195,1.479c0,0.454-0.064,0.944-0.195,1.475
			c-0.131,0.525-0.373,1.017-0.73,1.471c-0.355,0.454-0.863,0.827-1.522,1.121c-0.658,0.294-1.509,0.441-2.551,0.441h-3.909v5.638
			h-2.57V169.052z M231.402,176.005h3.766c0.287,0,0.582-0.04,0.885-0.124c0.301-0.082,0.579-0.215,0.833-0.402
			c0.253-0.184,0.458-0.431,0.617-0.737c0.157-0.31,0.237-0.697,0.237-1.162c0-0.479-0.07-0.879-0.207-1.195
			c-0.137-0.313-0.322-0.563-0.555-0.751c-0.234-0.185-0.502-0.31-0.803-0.38c-0.303-0.069-0.625-0.103-0.967-0.103h-3.807
			L231.402,176.005L231.402,176.005z"/>
		<path fill="#6D6E70" d="M245.435,169.052h10.575v2.22h-8.004v3.849h7.407v2.101h-7.407v4.301h8.147v2.221h-10.719L245.435,169.052
			L245.435,169.052z"/>
		<path fill="#6D6E70" d="M261.173,169.052h2.716l6.707,10.821h0.041v-10.821h2.448v14.688h-2.716l-6.686-10.801h-0.062v10.801
			h-2.448V169.052L261.173,169.052z"/>
		<path fill="#6D6E70" d="M289.297,178.844c0,0.564,0.096,1.043,0.288,1.44s0.46,0.724,0.802,0.978
			c0.343,0.254,0.737,0.438,1.184,0.555c0.447,0.117,0.93,0.177,1.451,0.177c0.562,0,1.041-0.065,1.439-0.195
			c0.397-0.131,0.72-0.299,0.967-0.506c0.247-0.205,0.425-0.44,0.535-0.708c0.109-0.268,0.165-0.537,0.165-0.812
			c0-0.562-0.127-0.979-0.381-1.244c-0.254-0.27-0.532-0.457-0.834-0.564c-0.521-0.193-1.128-0.373-1.82-0.547
			c-0.693-0.173-1.546-0.393-2.562-0.668c-0.631-0.166-1.155-0.381-1.573-0.648c-0.419-0.268-0.752-0.563-0.998-0.895
			c-0.247-0.33-0.423-0.682-0.524-1.051c-0.104-0.37-0.154-0.745-0.154-1.133c0-0.738,0.154-1.379,0.463-1.924
			c0.308-0.539,0.716-0.988,1.224-1.346c0.507-0.357,1.083-0.622,1.729-0.794c0.645-0.17,1.296-0.256,1.954-0.256
			c0.769,0,1.492,0.1,2.171,0.297c0.679,0.199,1.275,0.498,1.79,0.896c0.514,0.398,0.922,0.889,1.224,1.474
			c0.302,0.582,0.452,1.258,0.452,2.024h-2.572c-0.068-0.947-0.389-1.617-0.966-2.008c-0.576-0.391-1.31-0.584-2.201-0.584
			c-0.302,0-0.61,0.031-0.926,0.092c-0.316,0.062-0.604,0.164-0.864,0.309c-0.26,0.144-0.477,0.339-0.648,0.587
			c-0.172,0.247-0.258,0.555-0.258,0.926c0,0.521,0.162,0.929,0.484,1.226c0.322,0.295,0.744,0.518,1.266,0.67
			c0.055,0.014,0.27,0.072,0.647,0.173c0.378,0.104,0.799,0.216,1.265,0.339c0.467,0.124,0.923,0.243,1.369,0.359
			c0.445,0.117,0.764,0.203,0.956,0.26c0.479,0.15,0.899,0.355,1.255,0.617c0.356,0.261,0.655,0.558,0.896,0.895
			c0.238,0.338,0.418,0.697,0.534,1.078c0.116,0.385,0.175,0.77,0.175,1.152c0,0.824-0.168,1.526-0.504,2.11
			c-0.337,0.582-0.779,1.06-1.327,1.431c-0.55,0.367-1.173,0.641-1.872,0.811c-0.699,0.174-1.413,0.259-2.141,0.259
			c-0.836,0-1.625-0.103-2.365-0.31c-0.74-0.205-1.385-0.521-1.934-0.947c-0.55-0.424-0.988-0.968-1.316-1.633
			c-0.33-0.666-0.502-1.452-0.516-2.357h2.571V178.844z"/>
		<path fill="#6D6E70" d="M310.077,168.702c1.097,0,2.081,0.207,2.952,0.614c0.871,0.414,1.607,0.97,2.211,1.668
			c0.604,0.701,1.066,1.516,1.389,2.449c0.322,0.932,0.483,1.92,0.483,2.963c0,1.057-0.161,2.049-0.483,2.982
			c-0.322,0.932-0.785,1.75-1.389,2.447c-0.604,0.701-1.34,1.254-2.211,1.658c-0.871,0.404-1.855,0.605-2.952,0.605
			c-1.098,0-2.082-0.201-2.953-0.605s-1.608-0.957-2.212-1.658c-0.604-0.697-1.066-1.516-1.389-2.447
			c-0.322-0.934-0.482-1.927-0.482-2.982c0-1.043,0.16-2.031,0.482-2.963c0.322-0.935,0.785-1.748,1.389-2.449
			c0.604-0.698,1.341-1.254,2.212-1.668C307.995,168.909,308.979,168.702,310.077,168.702z M310.077,170.801
			c-0.782,0-1.458,0.156-2.027,0.471c-0.569,0.315-1.032,0.738-1.389,1.269c-0.356,0.526-0.62,1.129-0.792,1.799
			c-0.171,0.675-0.258,1.356-0.258,2.06c0,0.699,0.087,1.384,0.258,2.056c0.172,0.673,0.436,1.274,0.792,1.8
			c0.356,0.531,0.819,0.951,1.389,1.268c0.569,0.314,1.245,0.474,2.027,0.474c0.78,0,1.456-0.158,2.026-0.474
			c0.568-0.315,1.031-0.735,1.389-1.268c0.355-0.525,0.62-1.127,0.792-1.8c0.171-0.672,0.257-1.356,0.257-2.056
			c0-0.701-0.086-1.385-0.257-2.06c-0.172-0.67-0.437-1.272-0.792-1.799c-0.357-0.529-0.82-0.952-1.389-1.269
			C311.533,170.958,310.857,170.801,310.077,170.801z"/>
		<path fill="#6D6E70" d="M322.174,169.052h2.571v8.558c0,0.494,0.024,0.994,0.072,1.502c0.047,0.509,0.186,0.965,0.411,1.369
			c0.225,0.403,0.568,0.736,1.028,0.998c0.46,0.261,1.108,0.391,1.944,0.391s1.484-0.13,1.944-0.391
			c0.46-0.262,0.803-0.595,1.028-0.998c0.227-0.404,0.364-0.86,0.412-1.369c0.047-0.508,0.072-1.008,0.072-1.502v-8.558h2.57v9.4
			c0,0.946-0.144,1.769-0.431,2.47c-0.288,0.699-0.696,1.285-1.226,1.758c-0.527,0.475-1.161,0.827-1.902,1.062
			c-0.74,0.233-1.563,0.351-2.469,0.351c-0.906,0-1.728-0.115-2.469-0.351c-0.741-0.233-1.375-0.587-1.902-1.062
			c-0.529-0.473-0.937-1.059-1.225-1.758c-0.288-0.701-0.432-1.523-0.432-2.47v-9.4H322.174z"/>
		<path fill="#6D6E70" d="M340.072,169.052h7.014c1.618,0,2.832,0.349,3.643,1.048c0.81,0.701,1.214,1.674,1.214,2.922
			c0,0.701-0.101,1.28-0.308,1.738c-0.207,0.459-0.445,0.832-0.719,1.11c-0.277,0.282-0.549,0.485-0.814,0.606
			c-0.27,0.127-0.463,0.207-0.586,0.248v0.039c0.218,0.029,0.456,0.1,0.708,0.207c0.256,0.11,0.491,0.285,0.71,0.525
			c0.221,0.238,0.402,0.554,0.546,0.936c0.144,0.385,0.216,0.862,0.216,1.44c0,0.864,0.065,1.649,0.195,2.354
			c0.131,0.707,0.333,1.211,0.607,1.512h-2.756c-0.193-0.313-0.306-0.664-0.342-1.049c-0.033-0.385-0.049-0.754-0.049-1.11
			c0-0.672-0.043-1.251-0.126-1.738c-0.081-0.487-0.231-0.893-0.452-1.214c-0.218-0.32-0.517-0.561-0.895-0.71
			c-0.377-0.149-0.86-0.228-1.449-0.228h-3.787v6.049h-2.57V169.052L340.072,169.052z M342.643,175.739h4.219
			c0.822,0,1.447-0.196,1.872-0.589c0.425-0.391,0.636-0.977,0.636-1.758c0-0.467-0.067-0.849-0.204-1.143
			c-0.138-0.295-0.326-0.523-0.564-0.689c-0.243-0.164-0.517-0.274-0.825-0.328c-0.307-0.055-0.627-0.082-0.955-0.082h-4.178
			L342.643,175.739L342.643,175.739z"/>
		<path fill="#6D6E70" d="M367.353,173.723c-0.11-0.428-0.261-0.818-0.454-1.174c-0.19-0.357-0.438-0.666-0.739-0.926
			c-0.303-0.262-0.654-0.463-1.059-0.607c-0.404-0.144-0.877-0.215-1.411-0.215c-0.782,0-1.456,0.156-2.027,0.471
			c-0.568,0.315-1.031,0.738-1.389,1.269c-0.354,0.526-0.62,1.129-0.791,1.799c-0.171,0.675-0.257,1.356-0.257,2.06
			c0,0.699,0.086,1.384,0.257,2.056c0.171,0.673,0.437,1.274,0.791,1.8c0.357,0.531,0.82,0.951,1.389,1.268
			c0.571,0.314,1.245,0.474,2.027,0.474c0.575,0,1.083-0.101,1.523-0.299c0.438-0.2,0.815-0.476,1.133-0.822
			c0.314-0.351,0.562-0.758,0.739-1.226c0.178-0.465,0.295-0.967,0.349-1.502h2.513c-0.057,0.877-0.245,1.683-0.566,2.406
			c-0.324,0.728-0.76,1.355-1.309,1.883c-0.548,0.529-1.19,0.937-1.933,1.228c-0.741,0.287-1.558,0.431-2.449,0.431
			c-1.097,0-2.081-0.201-2.953-0.605c-0.87-0.404-1.606-0.957-2.212-1.658c-0.602-0.697-1.064-1.516-1.388-2.447
			c-0.322-0.934-0.481-1.927-0.481-2.982c0-1.043,0.159-2.031,0.481-2.963c0.323-0.935,0.786-1.748,1.388-2.448
			c0.605-0.699,1.342-1.255,2.212-1.669c0.872-0.407,1.856-0.614,2.953-0.614c0.822,0,1.598,0.112,2.326,0.34
			c0.726,0.228,1.368,0.556,1.921,0.986c0.558,0.432,1.007,0.957,1.349,1.571c0.344,0.621,0.558,1.326,0.638,2.123h-2.571V173.723z"
			/>
		<path fill="#6D6E70" d="M375.171,169.052h10.574v2.22h-8.003v3.849h7.407v2.101h-7.407v4.301h8.146v2.221H375.17L375.171,169.052
			L375.171,169.052z"/>
		<path fill="#6D6E70" d="M399.55,169.052h2.571v5.843h6.686v-5.843h2.573v14.688h-2.573v-6.625h-6.686v6.625h-2.571V169.052z"/>
		<path fill="#6D6E70" d="M421.274,169.052h2.737l5.658,14.688h-2.76l-1.375-3.889h-5.865l-1.378,3.889h-2.654L421.274,169.052z
			 M420.372,177.898h4.481l-2.198-6.315h-0.063L420.372,177.898z"/>
		<path fill="#6D6E70" d="M433.95,169.052h7.014c1.618,0,2.832,0.349,3.644,1.048c0.81,0.701,1.214,1.674,1.214,2.922
			c0,0.701-0.104,1.28-0.312,1.738c-0.206,0.459-0.443,0.832-0.719,1.11c-0.274,0.282-0.546,0.485-0.812,0.606
			c-0.269,0.127-0.464,0.207-0.585,0.248v0.039c0.219,0.029,0.453,0.1,0.707,0.207c0.256,0.11,0.492,0.285,0.712,0.525
			c0.218,0.238,0.401,0.554,0.546,0.936c0.144,0.385,0.216,0.862,0.216,1.44c0,0.864,0.062,1.649,0.192,2.354
			c0.131,0.707,0.332,1.211,0.606,1.512h-2.755c-0.193-0.313-0.307-0.664-0.34-1.049s-0.053-0.754-0.053-1.11
			c0-0.672-0.04-1.251-0.123-1.738s-0.23-0.893-0.451-1.214c-0.221-0.32-0.518-0.561-0.896-0.71
			c-0.377-0.149-0.862-0.228-1.451-0.228h-3.785v6.049h-2.569V169.052z M436.521,175.739h4.217c0.821,0,1.446-0.196,1.874-0.589
			c0.422-0.391,0.636-0.977,0.636-1.758c0-0.467-0.069-0.849-0.204-1.143c-0.14-0.295-0.328-0.523-0.566-0.689
			c-0.24-0.164-0.515-0.274-0.822-0.328c-0.311-0.055-0.629-0.082-0.957-0.082h-4.177V175.739L436.521,175.739z"/>
		<path fill="#6D6E70" d="M451.312,169.052h6.091c1.123,0,2.099,0.19,2.921,0.575c0.823,0.385,1.492,0.908,2.014,1.573
			c0.522,0.665,0.91,1.442,1.164,2.337c0.254,0.891,0.383,1.844,0.383,2.859c0,1.015-0.129,1.969-0.383,2.857
			c-0.254,0.893-0.643,1.672-1.164,2.337c-0.521,0.666-1.189,1.188-2.014,1.573c-0.822,0.382-1.798,0.575-2.921,0.575h-6.091
			V169.052z M453.884,181.643h2.53c1.003,0,1.82-0.137,2.459-0.4c0.638-0.27,1.137-0.639,1.501-1.11
			c0.364-0.474,0.611-1.028,0.741-1.667c0.131-0.639,0.195-1.326,0.195-2.066c0-0.742-0.064-1.431-0.195-2.068
			c-0.13-0.639-0.377-1.195-0.741-1.667s-0.863-0.843-1.501-1.11c-0.639-0.268-1.456-0.4-2.459-0.4h-2.53V181.643z"/>
		<path fill="#6D6E70" d="M467.606,169.052h2.612l2.654,11.232h0.04l2.962-11.232h2.634l2.882,11.232h0.04l2.737-11.232h2.611
			l-4.053,14.688h-2.613l-2.939-11.232h-0.043l-3.004,11.232h-2.652L467.606,169.052z"/>
		<path fill="#6D6E70" d="M494.763,169.052h2.737l5.659,14.688h-2.76l-1.376-3.889h-5.865l-1.378,3.889h-2.654L494.763,169.052z
			 M493.859,177.898h4.482l-2.2-6.315h-0.062L493.859,177.898z"/>
		<path fill="#6D6E70" d="M507.438,169.052h7.018c1.618,0,2.831,0.349,3.641,1.048c0.81,0.701,1.213,1.674,1.213,2.922
			c0,0.701-0.103,1.28-0.308,1.738c-0.207,0.459-0.447,0.832-0.722,1.11c-0.273,0.282-0.543,0.485-0.812,0.606
			c-0.268,0.127-0.463,0.207-0.587,0.248v0.039c0.219,0.029,0.456,0.1,0.71,0.207c0.252,0.11,0.49,0.285,0.708,0.525
			c0.222,0.238,0.402,0.554,0.546,0.936c0.146,0.385,0.217,0.862,0.217,1.44c0,0.864,0.064,1.649,0.195,2.354
			c0.13,0.707,0.332,1.211,0.606,1.512h-2.758c-0.19-0.313-0.305-0.664-0.339-1.049s-0.051-0.754-0.051-1.11
			c0-0.672-0.043-1.251-0.124-1.738c-0.083-0.487-0.232-0.893-0.453-1.214c-0.219-0.32-0.518-0.561-0.895-0.71
			c-0.378-0.149-0.861-0.228-1.45-0.228h-3.786v6.049h-2.57V169.052L507.438,169.052z M510.009,175.739h4.218
			c0.823,0,1.447-0.196,1.872-0.589c0.426-0.391,0.64-0.977,0.64-1.758c0-0.467-0.07-0.849-0.207-1.143
			c-0.138-0.295-0.326-0.523-0.566-0.689c-0.238-0.164-0.512-0.274-0.822-0.328c-0.308-0.055-0.627-0.082-0.955-0.082h-4.178
			L510.009,175.739L510.009,175.739z"/>
		<path fill="#6D6E70" d="M524.801,169.052h10.573v2.22h-8.003v3.849h7.407v2.101h-7.407v4.301h8.146v2.221H524.8L524.801,169.052
			L524.801,169.052z"/>
		<path fill="#6D6E70" d="M553.171,169.052h2.737l5.656,14.688h-2.756l-1.38-3.889h-5.862l-1.378,3.889h-2.654L553.171,169.052z
			 M552.268,177.898h4.483l-2.2-6.315h-0.062L552.268,177.898z"/>
		<path fill="#6D6E70" d="M567.531,178.844c0,0.564,0.097,1.043,0.29,1.44c0.19,0.397,0.458,0.724,0.802,0.978
			c0.342,0.254,0.737,0.438,1.183,0.555c0.446,0.117,0.929,0.177,1.449,0.177c0.564,0,1.043-0.065,1.44-0.195
			c0.397-0.131,0.722-0.299,0.969-0.506c0.245-0.205,0.425-0.44,0.535-0.708c0.106-0.268,0.164-0.537,0.164-0.812
			c0-0.562-0.128-0.979-0.383-1.244c-0.254-0.27-0.53-0.457-0.832-0.564c-0.521-0.193-1.128-0.373-1.821-0.547
			c-0.692-0.173-1.546-0.393-2.561-0.668c-0.632-0.166-1.156-0.381-1.575-0.648c-0.418-0.267-0.75-0.563-0.997-0.895
			c-0.245-0.33-0.422-0.682-0.523-1.051c-0.104-0.37-0.155-0.745-0.155-1.133c0-0.738,0.155-1.379,0.463-1.924
			c0.311-0.539,0.718-0.988,1.226-1.346s1.083-0.622,1.729-0.794c0.646-0.17,1.296-0.256,1.955-0.256c0.768,0,1.489,0.1,2.169,0.297
			c0.682,0.199,1.276,0.498,1.791,0.896c0.516,0.398,0.921,0.889,1.226,1.474c0.301,0.582,0.45,1.258,0.45,2.024h-2.569
			c-0.07-0.947-0.393-1.617-0.97-2.008c-0.574-0.391-1.309-0.584-2.199-0.584c-0.302,0-0.611,0.031-0.927,0.092
			c-0.316,0.062-0.604,0.164-0.864,0.309c-0.262,0.144-0.478,0.339-0.647,0.587c-0.171,0.247-0.256,0.555-0.256,0.926
			c0,0.521,0.159,0.929,0.482,1.226c0.321,0.295,0.743,0.518,1.266,0.67c0.054,0.014,0.271,0.072,0.647,0.173
			c0.378,0.104,0.8,0.216,1.265,0.339c0.468,0.124,0.924,0.243,1.369,0.359c0.444,0.117,0.764,0.203,0.957,0.26
			c0.479,0.15,0.896,0.355,1.254,0.617c0.357,0.261,0.653,0.558,0.895,0.895c0.24,0.338,0.418,0.697,0.535,1.078
			c0.117,0.385,0.176,0.77,0.176,1.152c0,0.824-0.169,1.526-0.504,2.11c-0.337,0.582-0.778,1.06-1.328,1.431
			c-0.549,0.367-1.171,0.641-1.872,0.811c-0.698,0.174-1.41,0.259-2.14,0.259c-0.836,0-1.625-0.103-2.366-0.31
			c-0.738-0.205-1.385-0.521-1.933-0.947c-0.549-0.424-0.989-0.968-1.317-1.633c-0.33-0.666-0.501-1.452-0.515-2.357h2.569V178.844z
			"/>
		<path fill="#6D6E70" d="M583.743,178.844c0,0.564,0.097,1.043,0.29,1.44c0.19,0.397,0.459,0.724,0.803,0.978
			c0.341,0.254,0.737,0.438,1.182,0.555c0.445,0.117,0.93,0.177,1.45,0.177c0.563,0,1.042-0.065,1.44-0.195
			c0.396-0.131,0.721-0.299,0.968-0.506c0.245-0.205,0.426-0.44,0.535-0.708c0.107-0.268,0.164-0.537,0.164-0.812
			c0-0.562-0.128-0.979-0.382-1.244c-0.255-0.27-0.53-0.457-0.831-0.564c-0.521-0.193-1.13-0.373-1.823-0.547
			c-0.692-0.173-1.546-0.393-2.561-0.668c-0.632-0.166-1.156-0.381-1.574-0.648c-0.418-0.267-0.751-0.563-0.998-0.895
			c-0.245-0.33-0.42-0.682-0.523-1.051c-0.104-0.37-0.155-0.745-0.155-1.133c0-0.738,0.155-1.379,0.464-1.924
			c0.311-0.539,0.717-0.988,1.225-1.346s1.084-0.622,1.729-0.794c0.646-0.17,1.297-0.256,1.955-0.256c0.768,0,1.49,0.1,2.169,0.297
			c0.682,0.199,1.276,0.498,1.791,0.896c0.516,0.398,0.921,0.889,1.226,1.474c0.302,0.582,0.452,1.258,0.452,2.024h-2.571
			c-0.069-0.947-0.391-1.617-0.969-2.008c-0.575-0.391-1.309-0.584-2.2-0.584c-0.301,0-0.611,0.031-0.926,0.092
			c-0.316,0.062-0.604,0.164-0.865,0.309c-0.261,0.144-0.478,0.339-0.647,0.587c-0.171,0.247-0.256,0.555-0.256,0.926
			c0,0.521,0.159,0.929,0.483,1.226c0.321,0.295,0.744,0.518,1.266,0.67c0.054,0.014,0.271,0.072,0.646,0.173
			c0.378,0.104,0.801,0.216,1.266,0.339c0.467,0.124,0.924,0.243,1.368,0.359c0.445,0.117,0.765,0.203,0.958,0.26
			c0.479,0.15,0.896,0.355,1.254,0.617c0.358,0.261,0.653,0.558,0.896,0.895c0.239,0.338,0.418,0.697,0.533,1.078
			c0.117,0.385,0.177,0.77,0.177,1.152c0,0.824-0.169,1.526-0.505,2.11c-0.337,0.582-0.778,1.06-1.327,1.431
			c-0.549,0.367-1.172,0.641-1.872,0.811c-0.698,0.174-1.411,0.259-2.14,0.259c-0.836,0-1.625-0.103-2.366-0.31
			c-0.739-0.205-1.385-0.521-1.934-0.947c-0.548-0.424-0.988-0.968-1.315-1.633c-0.331-0.666-0.501-1.452-0.516-2.357h2.568V178.844
			z"/>
		<path fill="#6D6E70" d="M604.524,168.702c1.097,0,2.081,0.207,2.95,0.614c0.872,0.414,1.608,0.97,2.213,1.668
			c0.604,0.701,1.065,1.516,1.391,2.449c0.321,0.932,0.481,1.92,0.481,2.963c0,1.057-0.16,2.049-0.481,2.982
			c-0.324,0.932-0.787,1.75-1.391,2.447c-0.604,0.701-1.341,1.254-2.213,1.658c-0.869,0.404-1.854,0.605-2.95,0.605
			c-1.1,0-2.081-0.201-2.953-0.605s-1.608-0.957-2.211-1.658c-0.604-0.697-1.067-1.516-1.39-2.447
			c-0.32-0.934-0.482-1.927-0.482-2.982c0-1.043,0.162-2.031,0.482-2.963c0.321-0.935,0.784-1.748,1.39-2.449
			c0.603-0.698,1.339-1.254,2.211-1.668C602.443,168.909,603.426,168.702,604.524,168.702z M604.524,170.801
			c-0.782,0-1.458,0.156-2.027,0.471c-0.568,0.315-1.031,0.738-1.389,1.269c-0.357,0.526-0.62,1.129-0.791,1.799
			c-0.173,0.675-0.259,1.356-0.259,2.06c0,0.699,0.086,1.384,0.259,2.056c0.171,0.673,0.434,1.274,0.791,1.8
			c0.356,0.531,0.819,0.951,1.389,1.268c0.569,0.314,1.245,0.474,2.027,0.474c0.781,0,1.456-0.158,2.026-0.474
			c0.568-0.315,1.031-0.735,1.387-1.268c0.357-0.525,0.622-1.127,0.794-1.8c0.171-0.672,0.256-1.356,0.256-2.056
			c0-0.701-0.085-1.385-0.256-2.06c-0.172-0.67-0.437-1.272-0.794-1.799c-0.354-0.529-0.817-0.952-1.387-1.269
			C605.98,170.958,605.307,170.801,604.524,170.801z"/>
		<path fill="#6D6E70" d="M626.701,173.723c-0.11-0.428-0.261-0.818-0.452-1.174c-0.192-0.357-0.438-0.666-0.741-0.926
			c-0.301-0.262-0.654-0.463-1.059-0.607c-0.404-0.144-0.874-0.215-1.409-0.215c-0.781,0-1.458,0.156-2.027,0.471
			c-0.567,0.315-1.03,0.738-1.389,1.269c-0.357,0.526-0.62,1.129-0.791,1.799c-0.173,0.675-0.258,1.356-0.258,2.06
			c0,0.699,0.085,1.384,0.258,2.056c0.171,0.673,0.434,1.274,0.791,1.8c0.356,0.531,0.82,0.951,1.389,1.268
			c0.569,0.314,1.246,0.474,2.027,0.474c0.575,0,1.084-0.101,1.521-0.299c0.438-0.2,0.816-0.476,1.134-0.822
			c0.313-0.351,0.562-0.758,0.738-1.226c0.181-0.465,0.295-0.967,0.352-1.502h2.511c-0.057,0.877-0.245,1.683-0.566,2.406
			c-0.32,0.728-0.758,1.355-1.306,1.883c-0.549,0.529-1.193,0.937-1.936,1.228c-0.739,0.287-1.558,0.431-2.447,0.431
			c-1.099,0-2.081-0.201-2.953-0.605c-0.871-0.404-1.608-0.957-2.211-1.658c-0.604-0.697-1.067-1.516-1.389-2.447
			c-0.321-0.934-0.483-1.927-0.483-2.982c0-1.043,0.162-2.031,0.483-2.963c0.32-0.935,0.783-1.748,1.389-2.448
			c0.603-0.699,1.34-1.255,2.211-1.669c0.872-0.407,1.854-0.614,2.953-0.614c0.823,0,1.598,0.112,2.324,0.34
			c0.728,0.228,1.367,0.556,1.924,0.986c0.555,0.432,1.004,0.957,1.348,1.571c0.342,0.621,0.557,1.326,0.64,2.123h-2.574V173.723z"
			/>
		<path fill="#6D6E70" d="M634.52,169.052h2.571v14.688h-2.571V169.052z"/>
		<path fill="#6D6E70" d="M647.049,169.052h2.737l5.656,14.688h-2.755l-1.381-3.889h-5.862l-1.378,3.889h-2.654L647.049,169.052z
			 M646.146,177.898h4.482l-2.2-6.315h-0.062L646.146,177.898z"/>
		<path fill="#6D6E70" d="M656.429,169.052h11.894v2.22h-4.67v12.47h-2.572v-12.47h-4.65L656.429,169.052L656.429,169.052z"/>
		<path fill="#6D6E70" d="M672.911,169.052h2.57v14.688h-2.57V169.052z"/>
		<path fill="#6D6E70" d="M687.764,168.702c1.098,0,2.081,0.207,2.95,0.614c0.872,0.414,1.609,0.97,2.214,1.668
			c0.604,0.701,1.065,1.516,1.39,2.449c0.32,0.932,0.482,1.92,0.482,2.963c0,1.057-0.162,2.049-0.482,2.982
			c-0.323,0.932-0.786,1.75-1.39,2.447c-0.604,0.701-1.342,1.254-2.214,1.658c-0.869,0.404-1.854,0.605-2.95,0.605
			c-1.099,0-2.081-0.201-2.953-0.605c-0.871-0.404-1.608-0.957-2.212-1.658c-0.604-0.697-1.066-1.516-1.389-2.447
			c-0.321-0.934-0.481-1.927-0.481-2.982c0-1.043,0.16-2.031,0.481-2.963c0.321-0.935,0.785-1.748,1.389-2.449
			c0.604-0.698,1.341-1.254,2.212-1.668C685.683,168.909,686.665,168.702,687.764,168.702z M687.764,170.801
			c-0.781,0-1.459,0.156-2.026,0.471c-0.568,0.315-1.031,0.738-1.39,1.269c-0.356,0.526-0.619,1.129-0.791,1.799
			c-0.173,0.675-0.259,1.356-0.259,2.06c0,0.699,0.086,1.384,0.259,2.056c0.172,0.673,0.435,1.274,0.791,1.8
			c0.357,0.531,0.82,0.951,1.39,1.268c0.567,0.314,1.245,0.474,2.026,0.474c0.782,0,1.456-0.158,2.026-0.474
			c0.569-0.315,1.032-0.735,1.387-1.268c0.357-0.525,0.623-1.127,0.794-1.8c0.171-0.672,0.256-1.356,0.256-2.056
			c0-0.701-0.085-1.385-0.256-2.06c-0.171-0.67-0.437-1.272-0.794-1.799c-0.354-0.529-0.816-0.952-1.387-1.269
			C689.22,170.958,688.546,170.801,687.764,170.801z"/>
		<path fill="#6D6E70" d="M699.922,169.052h2.715l6.708,10.821h0.04v-10.821h2.45v14.688h-2.718l-6.687-10.801h-0.062v10.801h-2.447
			V169.052z"/>
	</g>
</g>
<g>
	<g>
		<path fill="#231F20" d="M210.091,92.787c0-6.881,1.29-11.515,3.87-13.906c2.581-2.387,7.406-3.584,14.479-3.584h54.477
			c7.071,0,11.899,1.198,14.479,3.584c2.58,2.391,3.871,7.025,3.871,13.906v38.993c0,6.882-1.291,11.518-3.871,13.907
			c-2.58,2.392-7.408,3.585-14.479,3.585H228.44c-7.073,0-11.898-1.193-14.479-3.585c-2.58-2.39-3.87-7.025-3.87-13.907V92.787z
			 M227.295,135.365h56.77V88.488h-56.77V135.365z"/>
		<path fill="#231F20" d="M375.813,88.198h-48.601v15.916h46.266c7.086,0,11.949,1.193,14.581,3.583
			c2.634,2.391,3.953,7.025,3.953,13.906v10.178c0,6.882-1.317,11.518-3.944,13.907c-2.627,2.392-7.477,3.585-14.55,3.585h-41.976
			c-7.075,0-11.925-1.193-14.553-3.585c-2.63-2.39-3.942-7.025-3.942-13.907v-2.006l15.196-0.041v5.632h48.571V118.45h-46.159
			c-7.075,0-11.901-1.196-14.48-3.584c-2.58-2.389-3.871-7.025-3.871-13.907v-8.171c0-6.881,1.291-11.515,3.871-13.906
			c2.579-2.387,7.405-3.584,14.48-3.584h42.002c6.785,0,11.54,1.148,14.267,3.441c2.724,2.294,4.085,6.548,4.085,12.76v1.578
			l-15.196-0.009V88.198L375.813,88.198z"/>
		<path fill="#231F20" d="M404.769,149.272V75.296h17.203v28.674h53.762V75.296h17.35v73.976h-17.35v-31.827h-53.762v31.827H404.769
			z"/>
		<path fill="#231F20" d="M529.803,149.272l-28.526-73.976h17.777l17.781,49.605l19.637-49.605h13.044l20.071,49.605l17.918-49.605
			h17.217l-28.527,73.976h-13.488L562.347,98.09l-20.645,51.182H529.803z"/>
		<path fill="#231F20" d="M606.174,149.272l41.861-73.976h18.507l42.435,73.976h-19.354l-8.889-16.199h-46.879l-8.602,16.199
			H606.174z M641.167,119.737h32.4l-15.916-30.105L641.167,119.737z"/>
	</g>
</g>
<text transform="matrix(1 0 0 1 346.2852 50.8008)" font-family="'OratorStd'" font-size="60">Benefactor</text>
<text transform="matrix(1 0 0 1 346.2852 50.8008)" fill="none" stroke="#231F20" stroke-width="2" stroke-miterlimit="10" font-family="'OratorStd'" font-size="60">Benefactor</text>
<text transform="matrix(1 0 0 1 706.2803 50.8008)" font-family="'OratorStd'" font-size="48">  </text>
</svg>
