<?xml version="1.0" encoding="UTF-8"?><svg id="Layer_1" xmlns="http://www.w3.org/2000/svg" viewBox="0 0 34.33 34.33"><path d="M17.16,0C7.7,0,0,7.7,0,17.16s7.7,17.16,17.16,17.16,17.16-7.7,17.16-17.16S26.63,0,17.16,0M19.51,9.83c0-.22.17-.45.39-.51l2.79-.76c.22-.06.39.07.39.3v5.38c0,.22-.18.41-.4.41h-2.77c-.22,0-.4-.18-.4-.41v-4.4ZM11.21,12.1c0-.22.18-.45.39-.51l2.79-.76c.22-.06.39.07.39.3v1.04c0,.22-.18.4-.4.4h-2.77c-.22,0-.41-.18-.41-.4v-.07ZM14.78,24.55c0,.22-.18.45-.39.51l-2.79.76c-.22.06-.39-.08-.39-.3v-5.38c0-.22.18-.41.41-.41h2.76c.22,0,.41.18.41.41v4.4ZM23.09,22.28c0,.22-.17.45-.39.51l-2.79.76c-.22.06-.39-.07-.39-.3v-1.04c0-.22.18-.41.4-.41h2.77c.22,0,.4.18.4.41v.07ZM27.3,19.01c-.08.07-.35.13-.57.19-1.31.36-5.52,1.51-6.83,1.87-.22.06-.39-.07-.39-.3v-1.76c0-.22-.18-.41-.4-.41h-7.5c-.22,0-.4-.18-.4-.4v-2.05c0-.22-.18-.41-.4-.41h-3.6c-.14,0-.26-.11-.26-.25,0-.08.03-.14.08-.18.08-.07.35-.13.57-.19l6.81-1.86c.22-.06.39.07.39.3v1.78c0,.22.18.4.41.4h7.49c.22,0,.4.18.4.41v2.03c0,.22.18.4.4.4h3.64c.14,0,.26.11.26.26,0,.08-.04.13-.08.17"/></svg>