<?xml version="1.0" encoding="UTF-8"?><svg id="Layer_2" xmlns="http://www.w3.org/2000/svg" viewBox="0 0 487.17 375.05"><defs><style>.cls-1{opacity:.3;}.cls-1,.cls-2{fill:#fff;stroke-width:0px;}</style></defs><polygon class="cls-2" points="162.4 234.41 162.4 140.65 81.2 93.76 0 140.65 0 234.41 81.2 281.29 162.4 234.41"/><polygon class="cls-2" points="487.17 234.76 487.17 141 405.96 94.12 324.76 141 324.76 234.76 405.96 281.64 487.17 234.76"/><polygon class="cls-2" points="324.76 328.17 324.76 234.41 243.56 187.53 162.36 234.41 162.36 328.17 243.56 375.05 324.76 328.17"/><polygon class="cls-1" points="243.56 0 81.16 93.76 162.36 140.7 162.36 234.47 243.56 187.59 324.76 234.47 324.76 140.7 405.96 93.76 243.56 0"/></svg>