<?xml version="1.0" encoding="UTF-8"?><svg id="Layer_2" xmlns="http://www.w3.org/2000/svg" viewBox="0 0 324.85 468.82"><defs><style>.cls-1{opacity:.3;}.cls-1,.cls-2{fill:#231f20;stroke-width:0px;}</style></defs><polygon class="cls-2" points="162.4 140.65 162.4 46.88 81.2 0 0 46.88 0 140.65 81.2 187.53 162.4 140.65"/><polygon class="cls-2" points="162.45 421.94 162.45 328.17 81.25 281.29 .04 328.17 .04 421.94 81.25 468.82 162.45 421.94"/><polygon class="cls-2" points="324.85 328.17 324.85 234.41 243.65 187.53 162.45 234.41 162.45 328.17 243.65 375.05 324.85 328.17"/><polygon class="cls-1" points="162.4 140.65 243.65 187.53 162.45 234.47 162.45 328.23 81.25 281.35 .04 328.23 .04 140.65 81.25 187.53 162.4 140.65"/></svg>