<?xml version="1.0" encoding="UTF-8"?><svg id="Layer_2" xmlns="http://www.w3.org/2000/svg" viewBox="0 0 487.26 562.43"><defs><style>.cls-1{fill:#231f20;stroke-width:0px;}</style></defs><polygon class="cls-1" points="324.86 328.17 324.86 234.41 243.66 187.53 162.46 234.41 162.46 328.17 243.66 375.05 324.86 328.17"/><path class="cls-1" d="M91.47,452.77c-3.8,0-6.89-3.08-6.89-6.89s3.08-6.89,6.89-6.89h41.27l19.56-11.29h-11.39c-3.8,0-6.89-3.08-6.89-6.89s3.08-6.89,6.89-6.89h21.5v-85.82l-7.64-4.41-1.66,53.25c-.12,3.73-3.18,6.67-6.88,6.67-.07,0-.15,0-.22,0-3.8-.12-6.79-3.3-6.67-7.1l1.89-60.64-9.5-5.49-47.62,68.52c-1.34,1.92-3.48,2.96-5.66,2.96-1.36,0-2.73-.4-3.92-1.23-3.12-2.17-3.9-6.46-1.72-9.59l46.96-67.58-38.55-22.26-20.15,11.63h22.77c3.8,0,6.89,3.08,6.89,6.89s-3.08,6.89-6.89,6.89h-46.63l-19.93,11.51,3.17,41.71c.29,3.79-2.55,7.1-6.35,7.39-.18.01-.35.02-.53.02-3.57,0-6.59-2.75-6.86-6.37l-2.67-35.11L0,328.1v51.48l36.6-.24c3.85-.09,6.91,3.04,6.93,6.84.02,3.8-3.04,6.91-6.84,6.93L0,393.36v11.75l30.85-.2c3.76-.09,6.91,3.04,6.93,6.84.02,3.8-3.04,6.91-6.84,6.93L0,418.89v2.98l33.98,19.62,17.96-25.85c2.17-3.12,6.46-3.9,9.59-1.73,3.12,2.17,3.9,6.46,1.72,9.59l-17.31,24.9,35.25,20.35,27.68-15.98h-17.41ZM97.19,308.72c3.41,0,6.17,2.76,6.17,6.17s-2.76,6.17-6.17,6.17-6.17-2.76-6.17-6.17,2.76-6.17,6.17-6.17ZM96.2,370.95l27.01-37.36c2.23-3.08,6.53-3.78,9.62-1.55,3.08,2.23,3.78,6.53,1.55,9.62l-27.01,37.36c-1.35,1.86-3.45,2.85-5.59,2.85-1.4,0-2.81-.42-4.03-1.31-3.08-2.23-3.78-6.53-1.55-9.62ZM134.02,377.6c0,3.41-2.76,6.17-6.17,6.17s-6.17-2.76-6.17-6.17,2.76-6.17,6.17-6.17,6.17,2.76,6.17,6.17ZM80.08,392.09l61.8-.41c3.77-.1,6.91,3.04,6.93,6.84.02,3.8-3.04,6.91-6.84,6.93l-61.8.4h-.05c-3.78,0-6.86-3.05-6.89-6.84-.02-3.8,3.04-6.91,6.84-6.93ZM49.69,312.83h21.37c3.8,0,6.89,3.08,6.89,6.89s-3.08,6.89-6.89,6.89h-21.37c-3.8,0-6.89-3.08-6.89-6.89s3.08-6.89,6.89-6.89ZM24.81,339.7c0-3.8,3.08-6.89,6.89-6.89h45.01c3.8,0,6.89,3.08,6.89,6.89s-3.08,6.89-6.89,6.89H31.7c-3.8,0-6.89-3.08-6.89-6.89ZM39.57,368.36c-3.8,0-6.89-3.08-6.89-6.89s3.08-6.89,6.89-6.89h21.37c3.8,0,6.89,3.08,6.89,6.89s-3.08,6.89-6.89,6.89h-21.37ZM60.38,398.77c-3.41,0-6.17-2.76-6.17-6.17s2.76-6.17,6.17-6.17,6.17,2.76,6.17,6.17-2.76,6.17-6.17,6.17ZM69.19,451.33c-3.41,0-6.17-2.76-6.17-6.17s2.76-6.17,6.17-6.17,6.17,2.76,6.17,6.17-2.76,6.17-6.17,6.17ZM75.25,420.81c0-3.8,3.08-6.89,6.89-6.89h34.23c3.8,0,6.89,3.08,6.89,6.89s-3.08,6.89-6.89,6.89h-34.23c-3.8,0-6.89-3.08-6.89-6.89Z"/><path class="cls-1" d="M239.07,172.62c-2.9-.06-7.04.83-11.03,1.69-1.76.38-3.56.77-5.37,1.1l20.99,12.12,7.73-4.46c-2.83-10.21-9.27-10.38-12.32-10.45Z"/><path class="cls-1" d="M318.06,84.05c-1.7,14.96,5.87,32.59,5.95,32.77l-12.62,5.52c-.37-.86-9.15-21.15-7.02-39.85,1.74-15.27,14.45-26.11,20.48-30.47v-5.14l-12.78-7.38c-.21,5.08-2.34,12.39-11.17,18.96-6.2,4.62-8.38,7.59-8.61,11.77-.15,2.59,3.5,8.11,6.86,11.46l-9.67,9.81c-1.93-1.9-11.52-11.89-10.94-22.05.6-10.57,7.15-16.84,14.14-22.04,3.66-2.72,5.55-5.6,5.63-8.57.11-3.83-2.61-7.48-5.18-9.63-.69-.58-1.35-1.17-1.97-1.78l-16.4-9.47c1.59,3.71,3.93,7.34,4.95,8.74l-11.1,8.15c-.82-1.12-8.04-11.18-9.08-20.5-.2-1.78-.25-3.56-.22-5.31l-15.66-9.04-7.06,4.08c-.49,6.59.25,14.82,1.05,16.89l-12.63,5.5c-1.2-2.74-2.07-8.31-2.3-14.38l-25.24,14.57c1.57,2.54,3.41,4.88,5.56,6.55,6.86,5.32,18.65,5.62,22.62,5.29l1.21,13.72c-.2.02-1.59.13-3.75.13-6.29,0-19.17-.99-28.54-8.26-3.72-2.89-6.68-6.67-9.05-10.54l-23.09,13.33v7.29c.88.38,1.75.81,2.59,1.32,7.25,4.4,12.88,14.22,13.4,17.88l-13.64,1.95c.07.5.18.8.18.81-.28-.75-1.24-2.47-2.53-4.25v68.77l5.75,3.32c5.17-.09,6.36-.97,10.45-4.13.82-.64,1.71-1.32,2.71-2.06l8.21,11.06c-.92.68-1.73,1.31-2.49,1.9-1.09.84-2.11,1.61-3.13,2.32l11.94,6.89c-.68-6.34,1.31-12.63,2.62-16.77l.42-1.32,13.16,4.08-.45,1.41c-2,6.29-3.41,11.73-.44,14.65,1.54,1.51,9.6-.23,13.93-1.16,4.77-1.03,9.69-2.1,14.23-2,7.35.15,18.84,2.9,24.21,17.19l19.49-11.25c-6.07-.58-13.99-1.55-20.16-6.85-7.51-6.46-6.36-17.27-4.49-22.64l13.01,4.52c-.64,1.94-1.19,6.25.47,7.67,3.14,2.71,8.58,3.22,13.38,3.67,1.74.16,3.37.32,4.81.55l-1.57,9.93,26.43-15.26c-1.3.17-2.55.26-3.76.26-7.68,0-13.73-3.41-18.44-10.37-2.74-4.05-3.33-8.53-3.84-12.48-.47-3.6-.87-6.71-2.75-9.06-.96-1.21-2.52-2.7-4.44-2.9-1.4-.14-2.96.43-4.38,1.61-2.18,1.82-4.49,6.58-6.86,14.15l-.37,1.16-13.07-4.36.3-.93c2.23-7.11,5.52-15.88,11.19-20.61,4.29-3.58,9.47-5.26,14.6-4.73,5.29.54,10.07,3.32,13.82,8.02,4.26,5.36,5.02,11.18,5.63,15.86.36,2.78.68,5.19,1.59,6.54,2.82,4.17,5.26,4.67,9.06,4.16l1.83,13.6,9.82-5.67v-70.21c-3.26,3.69-6.2,8.35-6.8,13.61ZM170.09,133.88c-2.21,0-3.99-1.79-3.99-3.99s1.79-3.99,3.99-3.99,3.99,1.79,3.99,3.99-1.79,3.99-3.99,3.99ZM203.36,131.52c-4.86.68-9.83.35-14.4-1.04-7.84-2.4-13.83-7.81-16.89-15.25-2.95-7.19-3.94-22.39,11.07-33.77l4.16,5.49,4.19,5.47c-.43.33-10.5,8.29-6.69,17.58,1.5,3.65,4.25,6.11,8.18,7.31,5.44,1.66,12.43.56,17.39-2.75l7.64,11.47c-4.37,2.91-9.46,4.78-14.66,5.5ZM221.79,109.45l-13.74-.97c.62-8.82-4.2-27.98-7.05-32.5-4.28-6.8-12.84-10.16-16.5-11.6-.47-.18-.86-.34-1.17-.47l5.3-12.72.91.36c4.49,1.76,16.42,6.45,23.11,17.07,4.52,7.17,9.96,29.07,9.13,40.82ZM235.98,72.22c4.48,0,8.1,3.63,8.1,8.1s-3.63,8.1-8.1,8.1-8.1-3.63-8.1-8.1,3.63-8.1,8.1-8.1ZM232.41,154.22c-4.24,0-7.67-3.43-7.67-7.67s3.43-7.67,7.67-7.67,7.67,3.43,7.67,7.67-3.43,7.67-7.67,7.67ZM253.38,102.38c-1.31,1.08-2.59,2.14-3.74,3.19-4.15,3.77-5.89,14.38-4.15,25.23l-13.56,2.71c-2.14-13.36-.91-30.84,9.01-39.85,1.31-1.19,2.75-2.39,4.23-3.61,5.06-4.19,10.28-8.52,10.28-13.24,0-5.09-1.51-6.28-5.16-9.15-2.31-1.82-5.18-4.08-7.31-7.7-4.59-7.82-4.81-19.96-4.94-27.21-.02-1.03-.03-1.95-.06-2.7l13.76-.67c.03.86.05,1.89.07,3.06.09,4.86.27,14.97,2.7,19.1.69,1.17,2.1,2.29,3.73,3.57,4.37,3.45,10.98,8.65,10.98,21.7,0,12.44-9.16,20.03-15.84,25.57ZM271.83,49.9c-2.67,0-4.83-2.16-4.83-4.84s2.16-4.84,4.83-4.84,4.84,2.16,4.84,4.84-2.16,4.84-4.84,4.84Z"/><path class="cls-1" d="M353.85,400.17c-3.33,1.82-7.27,5.39-7.42,11.71-.15,6.32.89,10.97,3.75,11.52,2.86.55,9.21-3.23,10.03-5.93.82-2.7,1.98-8.41,1.59-11.21-.63-4.52-4.63-7.91-7.95-6.09ZM353.57,416.88c-2.05-.1-3.14-5.63-2.32-8.33.82-2.7,3.67-4.21,5.43-1.51,1.99,3.04-1.07,9.94-3.11,9.84Z"/><path class="cls-1" d="M413.34,464.54c.49-8.64,1.14-18.83.64-26.86-.51-8.03-3.1-14.29,2.14-19.43,1.88-1.84,3.43-3.02,7.74-.03,4.31,2.98,1.09,16.91.44,22.07-.45,3.55-.53,12.22-.44,18.26l4.84-2.79c-.06-1.89-.06-3.63.05-5,.5-6.01,1.36-25.89,1.82-28.6.46-2.71-1.52-6.2,1.04-7,2.69-.84,5.47-2.64,6.55,1.1,1.08,3.75,2.49,11.91,2.51,19.65.01,4.09-.43,8.44-1,13.52l8.06-4.65c-.72-6.82-5.08-29.94,1.66-25.72,3.7,2.31,4.07,14.09,4.31,22.28l6.11-3.53c-.62-5.11-.9-9.81-.22-11.38,1.8-4.19,10.37-2.95,11.17,2.21.09.59.21,1.5.35,2.65l13.18-7.61c-4.46-4.28-9.58-9.84-12.75-13.86-5.46-6.93.79-13.26,4-16.28,2.32-2.19,7.15-4.25,11.74-4.44v-30.49c-1.76.61-3.5.97-4.68.94-4.25-.1-7.11-2.64-4-5.73,1.9-1.88,5.49-3.32,8.68-3.71v-21.93l-3.52-2.03c-3.35,8.44-9.37,20.34-12.52,22.22-4.34,2.6-10.89,1.43-15.39-2.56-4.5-3.99-10.04-9.35-10.92-17.18-.66-5.83,3.24-14.45,6.7-21.03l-14.3-8.26c1.7,10.19,1.7,21.47-.12,25.67-2.81,6.48-10.8,15.34-12.32,15.56-1.51.22-5.4-4.75-5.4-6.7s8.3-11.24,9.55-16.21c1.25-4.97,2.77-15.99-1.77-23.77-.1-.18-.16-.34-.25-.51l-20.94-12.09-27.69,15.99c2.51,2.62,5.07,5.17,9.29,8.39,7.29,5.57,6.59,5.2,7.66,6.69,1.07,1.5-3.65,2.64-6.09,2.25-2.44-.39-7.49-3.97-11.6-7.46-1.11-.94-3.67-2.97-6.86-5.48l-7.77,4.49c5.26,3.94,10.3,8.02,10.65,9.54.63,2.79,1.13,7.53-3.34,6.44-3.74-.92-10.91-6.55-16.44-10.72l-9.18,5.3c.14.12.29.27.42.39,4.38,3.84,15.67,10.21,16.63,12.84s-3.59,4.93-5.72,5.11c-1.91.16-11.85-10.38-16.75-15.2l-14.41,8.32v34.93c4.84-4,7.06-11.83,8.72-19.5,1.93-8.91,6.4-7.26,9.75-7.1,3.35.16,3.47,9.04,3.05,13.22-.42,4.17-5.21,14.22-10.47,19.34-2.47,2.41-6.62,5.29-11.05,7.79v8.01c7.81-2,11.71-5.7,15.3-12.68,3.62-7.04,12.83-4.81,13.42,4.46.58,9.27-18.34,19.78-24.13,21.34-1.66.44-3.16.75-4.58.97v22.99l31.8,18.36c7.48-6.63,16.58-17.77,17.43-23.27.89-5.78-.85-12.04,2.68-14.88,3.53-2.84,9.3-2.43,10.99.1,1.69,2.53-4.96,26.15-9.73,33.09-2.28,3.32-5.73,7.83-9.42,11.87l4.25,2.46c6.81-8.8,16.56-25.25,17.15-28.62.81-4.61,4.21-14.02,5.65-15.91,1.45-1.89,5.03,1.61,6.23,2.53,1.2.92-1.19,10.79-2.25,16.44-.98,5.22-9.48,23.41-17.05,31.17l23.46,13.54,7.28-4.2s0-.05,0-.08ZM468.36,371.04c2.03-1.99,5.05.77,5.22,3.79.17,3.02-12.64,29.22-16.62,36.18,0,0-7.3-1.61-5.02-5.44s5.85-15.38,7.45-20.03c1.61-4.65,6.93-12.52,8.96-14.51ZM461.33,359.88c1.17-.52,4.38-.1,1.98,5.43-2.71,6.24-5.18,11.32-6.69,15.58-1.51,4.25-5.16,9.83-6.14,12.32-.98,2.49-3.68,11.11-4.85,11.63-1.17.51-4.07.18-3.6-3.3s.22-4.45,3.09-9.39c2.87-4.94,3.24-6.54,6.44-13.51,3.19-6.98,8.6-18.22,9.77-18.75ZM439.7,379.56c2.78-3.89,7.54-13.99,11.22-20.03,3.68-6.04,6.35-5.48,5.09-3.11-1.26,2.37-7.39,15.86-9.43,20.84-2.04,4.98-7.38,19.16-9.85,19.98-2.47.82-3.94-2.22-3.17-5.83.96-4.45,3.36-7.96,6.13-11.85ZM413.21,314.2c1.51-5.83-9.2-10.01-6.48-17.07,2.16-5.62,10.16-8.21,13.61-6.27,3.46,1.95,5.19,14.69,4.75,20.86s-9.29,18.25-11.56,19.27c-2.27,1.02-7.45-1.88-9.18-5.34s7.35-5.62,8.86-11.45ZM360.89,426.54c-2.53.98-6.72,2.26-10.88,3.42-4.16,1.16-11.07-4.32-11.94-7.44-.87-3.12,1.92-10.85,4.22-17.1,2.3-6.25,3.84-9.59,8.49-12.23,4.65-2.64,15.34,1.93,16.21,4.24,1.21,3.2,2.69,6.43,3.36,12.07.67,5.64-4.65,15.18-9.45,17.04ZM401.47,397.08c-9.32-4.31-15.17-7.95-22.48-12.15-9.18-5.27-9.26-6.82-16.02-12-6.05-4.64-6.16-13.35-1.73-21.73,4.19-7.93,9.42-12.04,11.74-13.39,2.32-1.35,11.65-6.16,15.63-5.72,4.24.47,7.71.21,15.63,4.72,7.92,4.51,10.36,11.19,15.25,15.46,4.9,4.27,8.4,6.02,12.76,11.18,4.36,5.16-4.03,23.17-8.98,30.88-4.95,7.71-16.21,5.34-21.79,2.76Z"/><path class="cls-1" d="M472.49,338.08c1.67-2.09,4.21-8.5,5.69-15.15l-5.78-3.34c-.45,3.08-2.06,6.75-3.47,8.32-2.83,3.17-6.62,3.7-6.95-.67-.26-3.45,1.88-8.6,4.5-11.07l-9.79-5.65c-2.08,8.16-4.27,23.26-.13,28.22,2.73,3.27,12.21,3.99,15.93-.66Z"/><path class="cls-1" d="M405.68,358.66c-3.2-2.67-8.11-6.48-10.75-6.67-3.66-.27-8.45-.61-9.68,4.49-1.23,5.1,1.64,11.61,5.02,15.76,3.38,4.15,13.26,8.61,15.59,8.81s8-3.5,7.81-6.96c-.26-4.89-2.86-11.13-8-15.43ZM403.02,372.77c-1.14-.42-5.2-4.16-8.35-8.24-3.15-4.08-2.62-6.95.8-7.01,3.4-.07,10.21,6.03,11.53,8.74,1.32,2.72-.35,7.87-3.99,6.51Z"/><path class="cls-1" d="M415.98,353.83c-3.29-2.12-11.78-9.27-13.77-10.91-4.93-4.08-11.63-5.01-16.24-5.17-3.85-.14-9.44,4.08-13.02,8.47-4.56,5.59-10.46,12.8-7.2,19.31,3.02,6.04,7.21,9.16,12.94,13.25,5.95,4.25,10.71,8.23,18.07,10.76,7.36,2.52,14.79,4.18,17.93,2.02,3.14-2.16,12.84-16.32,13.22-21.51.38-5.19-8.64-14.11-11.93-16.22ZM407.46,387.98c-3.39.74-9.17-1.86-12.85-3.46-3.69-1.6-14.96-13.13-20.42-20.06-5.46-6.93.79-13.26,4-16.28,3.21-3.03,11.18-5.85,16.72-3.76,6.39,2.4,17.98,12.45,23.56,17.65,5.59,5.19,4.75,10.89,4.09,12.87-1.09,3.25-11.7,12.31-15.09,13.04Z"/><path class="cls-1" d="M482.59,401.81c-1.18,4.91,1.45,11.12,4.67,15.28v-19.68c-2.13.4-3.97,1.52-4.67,4.4Z"/><path class="cls-1" d="M176.88,487.83c5.31-.51,8.07-2.61,7.97-4.34-.09-1.44-2.16-3.43-6.46-3.31-1.78.04-8.51.55-15.92,1.15v6.83c2.67-.1,5.19-.12,7.43-.13,2.82-.02,5.25-.03,6.99-.2Z"/><path class="cls-1" d="M162.45,431.83c3.78-1.17,7.11-.49,9.4-.02.6.12,1.42.29,1.7.29h0c3.27-.14,4.02-1.52,4.32-2.85.77-3.46-1.65-9.02-6.36-11.48-.31-.16-.7-.36-1.13-.58l-7.93,4.58v10.05Z"/><path class="cls-1" d="M260.17,384.44c-1.55,2.05-2.66,4.2-2.76,6.4-.11,2.53,2.11,6.59,4.07,10.16,2.6,4.76,5.3,9.67,4.97,14.67-.35,5.41-1.73,7.98-3.49,10.78-.84,1.33-1.56,2.47-2.31,4.7-.61,1.82-.45,3.49.42,4.46.73.81,1.91,1.07,3.31.75,3.36-.77,8.15-5.13,10.67-9.73,2.41-4.39,2.83-8.43,1.24-12-.51-1.15-1.73-2.44-3.15-3.93-3.36-3.55-7.97-8.41-8.04-17.07-.02-2.07.32-4.02.92-5.81l-5.86-3.38Z"/><path class="cls-1" d="M311.92,468.89c-5.82-2.79-9.72-8.06-9.92-13.43-.33-8.42,3.37-11.92,5.82-14.23.7-.66,1.26-1.19,1.48-1.62.57-1.11.54-2.12-.08-2.78-.89-.94-2.74-.94-4.83,0-2.38,1.23-11.19,9.23-12.81,14.93-1.46,5.14,3.43,12.34,8.8,16.05,3.83,2.65,12.26,5.54,17.29,7.27,2.48.85,4.28,1.47,5.42,1.98.68.31,1.27.74,1.76,1.24v-8.33c-4.11,1.29-8.67.98-12.94-1.07Z"/><path class="cls-1" d="M320.74,488.03c-.79,0-1.59-.16-2.35-.51-.66-.3-2.58-.95-4.43-1.59-6.31-2.17-14.96-5.13-20.09-8.68-8.91-6.16-16.35-17.97-13.32-28.63,2.92-10.3,15.38-20.58,19.16-22.27,6.67-2.99,13.52-1.99,17.85,2.6,3.99,4.22,4.76,10.48,1.94,15.93-1.12,2.17-2.6,3.57-3.8,4.7-1.72,1.62-2.36,2.23-2.23,5.44.03.65,1.09,2.41,3.42,3.53,1.29.62,3.78,1.41,6.02-.25.82-.61,1.45-1.55,1.95-2.69v-33.82l-48.24-27.85c.15,3.68,1.87,5.72,4.87,8.87,1.87,1.98,4,4.21,5.31,7.16,3.08,6.92,2.5,14.6-1.67,22.19-3.52,6.4-10.5,13.64-18.18,15.39-1.23.28-2.45.42-3.65.42-4.14,0-7.99-1.63-10.73-4.66-3.7-4.1-4.75-10.01-2.79-15.82,1.19-3.52,2.51-5.62,3.47-7.15,1.1-1.75,1.56-2.47,1.75-5.41.11-1.67-2.02-5.56-3.58-8.41-2.68-4.9-5.72-10.45-5.47-16.18.2-4.44,1.93-8.31,4.24-11.66l-6.53-3.77-16.86,9.73c5.78,4.15,9.91,8.56,12.49,13.4,2.67,4.99,5.05,12.62,6.47,17.17.4,1.29.7,2.26.87,2.72,1.33,2.88.04,6.22-2.83,7.55-.76.35-1.57.52-2.36.52-2.2,0-4.32-1.28-5.29-3.39-.32-.7-.6-1.57-1.35-3.97-1.22-3.9-3.48-11.15-5.63-15.18-2.24-4.18-6.47-8.13-12.94-12.06-.18-.11-.33-.24-.49-.37l-4.7,2.71c3.24,3.91,5.72,7.55,6.76,10.91,1.59,5.13,7.91,14.15,13.25,18.92,7.71,6.88,10.01,19.39,9.68,23.45-.25,3-2.76,5.27-5.71,5.27-.16,0-.32,0-.48-.02-3.16-.26-5.51-3.04-5.24-6.19.05-1.69-1.66-10.16-5.88-13.94-6.94-6.2-14.37-17-16.57-24.08-.65-2.09-3.12-5.3-5.89-8.49l-5,2.89c6.07,7.67,9.49,13.32,11.02,18.18,1.61,5.12,4.81,9.85,8.78,13,6.6,5.23,12.42,18.32,12.11,24.66-.15,3.07-2.69,5.46-5.73,5.46-.09,0-.19,0-.28,0-3.17-.15-5.61-2.85-5.46-6.01.08-2.6-3.93-12.06-7.77-15.1-5.81-4.6-10.29-11.19-12.61-18.55-1.41-4.49-5.74-10.44-10.11-15.83l-4.43,2.56c6.08,5.35,9.25,13.59,7.6,20.96-1.58,7.08-7.21,11.49-15.06,11.82-1.62.07-3.15-.25-4.49-.52-1.87-.39-2.98-.58-3.98-.16-1.64.7-2.34,1.67-2.08,2.88.28,1.26,1.57,2.5,3.8,2.44,2.13-.06,4.3-.47,6.6-.89,4.9-.91,10.46-1.94,16.93.12,7.83,2.5,12.6,10.15,13.12,11.02,1.63,2.72.74,6.24-1.98,7.87-.92.55-1.94.82-2.94.82-1.95,0-3.86-1-4.93-2.79-.8-1.3-3.6-4.97-6.76-5.98-3.72-1.19-7.08-.56-11.34.23-2.63.49-5.34.99-8.36,1.08-1.81.05-3.53-.19-5.15-.67v10.78c7.23-.58,13.71-1.06,15.64-1.11,11.25-.28,17.78,7.05,18.21,14.1.44,7.27-5.06,15.18-18.33,16.46-2.26.22-4.93.23-8.02.25-2.33.01-4.86.03-7.5.14v15.9l9.1,5.25c1.86-3.09,4.03-5.74,6.22-7.05,3.2-1.92,9.6-5.29,15.49-8.01h0c5.23-2.64,9.09-16.77,9.19-20.87.08-3.17,2.68-5.66,5.88-5.6,3.17.08,5.67,2.71,5.59,5.88-.04,1.73-1.12,9.43-4.25,16.89,4.39,1.01,7.88,3.87,9.69,7.34,3.34,6.39,1.19,13.92-5.23,18.32-2.5,1.72-5.88,3.44-9.15,5.12-2.34,1.2-4.74,2.43-6.53,3.51l26.69,15.41c1.04-1.7,1.79-3.3,2.09-4.63.64-2.78,2.1-5.24,4.09-7.12-1.54-1.64-2.69-3.27-3.42-4.9-1.76-3.94-4.06-13.92-2.55-18.4,1.01-3.01,4.26-4.62,7.27-3.61,2.91.98,4.51,4.05,3.7,6.97-.16,1.7.84,7.61,2.07,10.36.13.28,1.45,2.91,8.36,7.04.02.01.04.03.06.04,2.04,1.01,3.85,2.53,5.24,4.55,1.86,2.69,5.09,6.48,8.84,10.42l8.23-4.75c-1.85-2.1-3.32-4.62-4.24-7.45-2.56-7.93-.53-16.33,5.44-22.48,5.58-5.74,11.33-7.31,15.53-8.45,4.06-1.11,5.77-1.66,7.34-4.28.64-1.06,1.23-2.58.43-3.75-1-1.47-4.03-2.62-8.55-1.88-2.74.45-5.72,2.83-8.87,5.35-2.37,1.89-4.9,3.91-7.74,5.46-.2.14-.38.29-.6.41-4.78,2.59-7.13,12.8-6.54,17.13.43,3.14-1.77,6.03-4.91,6.46-.26.04-.53.05-.78.05-2.83,0-5.29-2.09-5.68-4.96-.53-3.88.1-10.61,2.61-16.81-8.4-.97-15.27-3.65-17.37-4.73-9.46-4.85-15.66-13.87-15.81-22.98-.1-5.64,2.4-10.5,6.85-13.32,4.95-3.15,11.64-3.2,17.88-.13,1.11.54,2.75,1.47,4.67,2.55,3.53,1.99,10.86,6.12,13.29,6.41,2.23.27,2.92-.7,3.24-1.45.84-1.93.22-5.3-3.13-8.12-5.83-4.91-12.12-3.38-12.18-3.37-3.05.78-6.2-1.03-7.02-4.06-.81-3.04.92-6.15,3.95-7,.49-.14,12.09-3.25,22.65,5.65,6.83,5.75,9.35,14.38,6.26,21.48-2.58,5.92-8.37,9.09-15.15,8.27-4.34-.53-10.26-3.71-17.54-7.81-1.68-.95-3.13-1.77-4.1-2.24-2.63-1.29-5.12-1.47-6.67-.48-1.29.82-1.54,2.32-1.52,3.44.08,4.77,4.02,10.1,9.58,12.96,1.23.63,9.31,3.82,18.16,3.82h.19c3.28-.02,6.67-2.73,10.27-5.6,3.97-3.17,8.47-6.77,14.17-7.71,8.61-1.42,16.06,1.1,19.9,6.75,3.19,4.68,3.16,10.7-.06,16.1-4,6.69-9.64,8.23-14.17,9.47-3.72,1.01-6.92,1.89-10.31,5.38-2.95,3.04-3.98,7.13-2.75,10.94.7,2.17,2.06,3.91,3.76,4.95l25.27-14.59c.08-1.59.14-3.27.16-5.16l.02-1.48c.12-8.59,3.09-18.38,7.22-23.82,1.92-2.52,5.52-3.01,8.04-1.1,2.52,1.92,3.01,5.52,1.1,8.04-1.89,2.48-4.7,9.49-4.87,16.77l8.35-4.82v-29.3c-1.08,1.12-2.56,1.78-4.12,1.78Z"/><path class="cls-1" d="M181.47,526.52l6.74,3.89c1.11-1.45,2.45-2.77,4.09-3.77,2.18-1.34,4.87-2.71,7.47-4.04,2.95-1.51,6-3.07,7.89-4.37,1.14-.78,2.33-2.03,1.55-3.53-.62-1.18-2.31-2.19-5.04-1.15-6.16,2.34-16.4,7.59-20.47,10.04-.62.46-1.41,1.56-2.22,2.94Z"/><path class="cls-1" d="M242.6,548.57c-.56-.82-1.18-1.11-1.99-.96-.86.16-1.9.89-2.18,2.09-.6,2.59-1.82,5.24-3.34,7.78l8.57,4.95,7.03-4.06c-3.09-3.35-6.04-6.83-8.09-9.8Z"/><path class="cls-1" d="M156.44,145.32c-2.38,7.67-6.89,13.05-5.73,19.34,1.11,6.04,7.01,12.06,11.69,14.79v-38.78l-5.89-3.4c.68,2.69.71,5.51-.07,8.04Z"/><path class="cls-1" d="M143.96,218.94c-1.73-2.18-4.75-1.31-4.75,7.87s1.26,14.59,2.63,15.34c4.47,2.47,3.86-21.03,2.13-23.21Z"/><path class="cls-1" d="M30.47,245.71c-1.67.05-3.48,1.78-4.88,3.5l8.5,4.91c.08-.12.12-.23.21-.36,4.27-6-.49-8.16-3.84-8.05Z"/><path class="cls-1" d="M17.77,154.26c3.6,1.32,7.9,5.09,2.37,8.67-7.39,4.78-15.63,9.18-20.15,12.02v33.99c2.8,2.32,5.3,3.92,7.77,4.3,4.32.65,6.59-1.08,8.43-1.3,1.84-.22,8.32.22,6.16,7.46-2.16,7.24-4.97,8.64-8.64,8.75-2.57.08-8.89-.75-13.71-2.55v8.83l11.13,6.43c2.15-3.04,5.31-6.91,7.89-8.98,4.32-3.46,11.34-2.7,14.05-1.51,2.7,1.19,10.26,6.48,12.53,14.37,1.76,6.13-1.31,10.89-3.72,13.87l39.32,22.7,10.23-5.9c-.76-3.05-1.38-5.92-1.93-7.97-1.9-7.05-4.38-22.43,1.33-24.82,5.71-2.39,7.58,4.94,10.66,11.8,1.51,3.36,2.51,8.09,3.35,13.25l30.84-17.81c-1.04-1.66-2.16-3.81-3.71-6.56-4.65-8.25-.97-22.76.97-30.11,1.95-7.35,7.13-8.97,13.83-7.45,6.7,1.51,6.7,11.24,7.13,14.48.43,3.24-2.05,14.59-2.38,18.8-.04.54-.11,1.16-.2,1.82l11.09-6.4v-35.06c-3.79-1.8-5.26-2.04-9.85-3.6-5.73-1.95-13.62-5.76-14.64-12.55s-.71-13.7,0-19.65-1.35-9.62-4.27-13.72c-2.92-4.11-3.89-10.91-.65-15.67,2.02-2.97,3-5.85,5.52-7.31l-31.93-18.44c-1.18,4.22-2.9,7.52-5.46,8.17-5.47,1.38-10.14-.89-11.17-8.08-.46-3.26-.26-6.73-.25-9.83l-8.51-4.91-14.81,8.55c-2.74,6.31-4.85,13.59-5.98,15.06-1.71,2.25-4.21,5.66-9,2.53-3.42-2.24-4.7-3.43-4.17-6.54l-24.28,14.02c1.72,2.43,4.32,4.21,6.47,2.4,3.46-2.92,6.81-2.81,9.4-1.51,2.59,1.3,2.39,4.89,1.2,8.99s-6.82,8.73-12.54,10.02c-5.73,1.3-12.04-4.19-15.02-6.59-.98-.79-1.53-3.11-1.8-6.22l-10.68,6.17v21c5.82-2.5,14.2-8.71,17.77-7.41ZM64.06,267.3c-1.91,0-3.46-1.55-3.46-3.46s1.55-3.46,3.46-3.46,3.46,1.55,3.46,3.46-1.55,3.46-3.46,3.46ZM85.19,228.81c-7.12-.92-25.91-6.52-28.08-4.35-2.33,2.31,12.12,15.15,16.85,20.74,4.73,5.6,3.78,8.65-1.26,10.28-5.04,1.64-17.09-10.57-23.03-18.33-5.94-7.76-13.17-16.21-10.19-23.56,2.98-7.36,19.15-4.22,24.24-3.15,5.09,1.06,18.71,5.89,23.55,9.54,4.84,3.66,1.17,9.26-2.07,8.84ZM41.04,198.29c0-2.06,1.67-3.73,3.73-3.73s3.73,1.67,3.73,3.73-1.67,3.73-3.73,3.73-3.73-1.67-3.73-3.73ZM89.6,201.04c-2.03,0-3.68-1.38-3.68-3.08s1.65-3.08,3.68-3.08,3.68,1.38,3.68,3.08-1.65,3.08-3.68,3.08ZM95.51,169.83c2.83-1.64,6.87.06,9.02,3.78,2.15,3.72,1.59,8.06-1.24,9.7-2.83,1.63-6.87-.06-9.02-3.78-2.15-3.72-1.59-8.06,1.24-9.7ZM117.76,251.45c-2.03,0-3.68-1.38-3.68-3.08s1.65-3.08,3.68-3.08,3.68,1.38,3.68,3.08-1.65,3.08-3.68,3.08ZM132.92,183.76c.76,3.24-3.03,8.53-6.27,5.94-3.24-2.59-3.35-.32-2.56,1.61,1.38,3.37,2.02,10.38,2.02,10.38,1.3,10.48.68,23.23-5.06,24.85-5.74,1.62-9.09,1.62-14.6-1.95-5.51-3.56-7.02-6.16-9.51-7.67-2.48-1.51-5.51-4.86-2.38-6.7,3.13-1.84,11.44,1.62,15.39.32,3.95-1.3,6.65-4.97,5.25-11.88-1.4-6.91-2.05-19.45,4.54-19.77,6.59-.32,12.42,1.62,13.18,4.86ZM99.28,129.68c3.35,2.05.65,7.78-1.84,7.46-2.49-.32-3.46-.22-4.92,1.26-1.46,1.47.27,6.52,2.54,8.14,2.27,1.62,5.08-.43,6.59-2.59,1.51-2.16,4.54-11.67,8.1-15.99,3.56-4.32,7.78-3.02,9.63-1.02,1.85,2-2.84,12.75-.55,16.04,1.73,2.49,4.21,8.86,4.65,14.37.43,5.51-4.11,12.75-8.43,12.64-4.32-.11-4.43-7.24-4.43-11.56s-2.38-3.89-4.65-1.62c-2.27,2.27-14.15,4.97-21.28-2.16-7.13-7.13-3.13-15.23,0-22.18,3.13-6.95,11.24-4.83,14.59-2.78ZM75.82,110.34c3.27,0,5.92,3.48,5.92,7.78s-2.65,7.78-5.92,7.78-5.92-3.48-5.92-7.78,2.65-7.78,5.92-7.78ZM41.67,147.49c1.19-5.29,5.4-5.4,8-5.4s3.78,3.78,6.09,2.81c1.99-.84-.71-4.64-2.63-7.13-2.92-3.78-.22-7.67,2.69-8.64,2.33-.78,6.73-.07,10.05,3.46,3.57,3.78,3.89,12.32,4.11,18.26.22,5.94-6.48,7.13-8.86,6.7-2.38-.43-9.4-1.08-14.37-2.27-4.97-1.19-5.58-5.56-5.08-7.78ZM50.99,167.67c12.01-1.32,18.66.87,22.3,4.86,3.64,3.99,4.9,14.8,2.84,17.99-4.28,6.62-11.53,3.31-14.88,1.64-3.95-1.97-4.41-6.94-6.83-9.13-1.83-1.65-9.87-3.25-15.42-1.88-5.55,1.38-5.4,4.74-4.97,7.64.43,2.9-.35,5.73-3.5,7.85-3.88,2.61-12.47,3.49-16.82-2.6-4.35-6.09-.09-17.81,3.75-20.85,3.84-3.04,20.42-4.09,33.53-5.52Z"/></svg>