<?xml version="1.0" encoding="UTF-8"?><svg id="Layer_2" xmlns="http://www.w3.org/2000/svg" viewBox="0 0 405.96 468.21"><defs><style>.cls-1{opacity:.3;}.cls-1,.cls-2{fill:#fff;stroke-width:0px;}</style></defs><polygon class="cls-2" points="324.76 140.65 324.76 46.88 243.56 0 162.36 46.88 162.36 140.65 243.56 187.53 324.76 140.65"/><polygon class="cls-2" points="162.4 421.32 162.4 327.56 81.2 280.68 0 327.56 0 421.32 81.2 468.21 162.4 421.32"/><polygon class="cls-2" points="405.96 374.47 405.96 280.71 324.76 233.83 243.56 280.71 243.56 374.47 324.76 421.35 405.96 374.47"/><polygon class="cls-1" points="162.36 233.8 162.36 140.03 243.56 186.92 324.76 140.03 324.76 233.8 243.56 280.68 243.56 374.5 162.36 421.38 162.36 327.62 81.16 280.68 162.36 233.8"/></svg>
