<?xml version="1.0" encoding="UTF-8"?><svg id="Layer_2" xmlns="http://www.w3.org/2000/svg" viewBox="0 0 487.21 375.52"><defs><style>.cls-1{opacity:.3;}.cls-1,.cls-2{fill:#fff;stroke-width:0px;}</style></defs><polygon class="cls-1" points="162.4 47.19 243.6 94.07 324.81 47.19 324.81 140.96 406.01 187.84 324.81 234.78 324.81 328.54 243.6 281.66 162.4 328.54 162.4 234.78 81.2 187.84 162.4 140.96 162.4 47.19"/><polygon class="cls-2" points="487.21 140.65 487.21 46.88 406.01 0 324.81 46.88 324.81 140.65 406.01 187.53 487.21 140.65"/><polygon class="cls-2" points="162.4 140.96 162.4 47.19 81.2 .31 0 47.19 0 140.96 81.2 187.84 162.4 140.96"/><polygon class="cls-2" points="487.21 328.33 487.21 234.56 406.01 187.68 324.81 234.56 324.81 328.33 406.01 375.21 487.21 328.33"/><polygon class="cls-2" points="162.4 328.64 162.4 234.87 81.2 187.99 0 234.87 0 328.64 81.2 375.52 162.4 328.64"/></svg>