<?xml version="1.0" encoding="UTF-8"?><svg id="Layer_2" xmlns="http://www.w3.org/2000/svg" viewBox="0 0 487.21 374.82"><defs><style>.cls-1{opacity:.3;}.cls-1,.cls-2{fill:#231f20;stroke-width:0px;}</style></defs><polygon class="cls-2" points="324.81 140.65 324.81 46.88 243.6 0 162.4 46.88 162.4 140.65 243.6 187.53 324.81 140.65"/><polygon class="cls-2" points="162.4 327.94 162.4 234.17 81.2 187.29 0 234.17 0 327.94 81.2 374.82 162.4 327.94"/><polygon class="cls-2" points="487.21 327.94 487.21 234.17 406.01 187.29 324.81 234.17 324.81 327.94 406.01 374.82 487.21 327.94"/><polygon class="cls-1" points="162.4 140.41 243.6 187.29 324.81 140.41 406.01 187.29 324.81 234.23 324.81 327.99 243.6 281.11 162.4 327.99 162.4 234.23 81.2 187.29 162.4 140.41"/></svg>