<svg xmlns="http://www.w3.org/2000/svg" width="800" height="500" viewBox="0 0 800 500"><rect width="100%" height="100%" fill="#DDDDDD"/><path fill="#999999" d="M172.62 243v21.39q1.95 2.37 4.25 3.35 2.31.98 5 .98 2.61 0 4.7-.98 2.09-.98 3.56-2.98 1.46-2 2.25-5.04.79-3.05.79-7.19 0-4.18-.67-7.09-.68-2.9-1.93-4.72-1.26-1.81-3.05-2.65-1.79-.83-4.07-.83-3.58 0-6.09 1.51t-4.74 4.25Zm-1.54-11.86.93 4.42q2.93-3.3 6.65-5.35 3.72-2.04 8.75-2.04 3.9 0 7.13 1.63 3.24 1.62 5.58 4.71 2.35 3.1 3.63 7.63 1.28 4.53 1.28 10.39 0 5.35-1.44 9.91-1.44 4.55-4.12 7.9-2.67 3.35-6.46 5.23-3.79 1.89-8.49 1.89-4 0-6.83-1.23-2.84-1.24-5.07-3.42v19.53h-11.49v-63.29h7.02q2.24 0 2.93 2.09Zm43.02-23.48h11.48v69.1H214.1v-69.1Zm48.17 56.78v-8.05q-4.97.24-8.37.86-3.39.63-5.44 1.61-2.05.97-2.93 2.28-.88 1.3-.88 2.83 0 3.02 1.79 4.33 1.79 1.3 4.67 1.3 3.53 0 6.12-1.28 2.58-1.28 5.04-3.88ZM238 239.37l-2.05-3.67q8.23-7.53 19.81-7.53 4.19 0 7.49 1.37t5.58 3.81q2.28 2.44 3.46 5.84 1.19 3.39 1.19 7.44v30.13h-5.21q-1.63 0-2.51-.49-.89-.49-1.4-1.97l-1.02-3.45q-1.81 1.63-3.53 2.86-1.72 1.24-3.58 2.07-1.86.84-3.98 1.28-2.12.44-4.67.44-3.03 0-5.58-.81-2.56-.81-4.42-2.44-1.86-1.63-2.88-4.05-1.03-2.41-1.03-5.62 0-1.82.61-3.61.6-1.79 1.97-3.41 1.38-1.63 3.56-3.07 2.19-1.44 5.37-2.51 3.19-1.07 7.42-1.75 4.23-.67 9.67-.81v-2.79q0-4.79-2.05-7.09-2.04-2.3-5.9-2.3-2.79 0-4.63.65-1.83.65-3.23 1.46-1.39.81-2.53 1.47-1.14.65-2.54.65-1.21 0-2.04-.63-.84-.63-1.35-1.47Zm83.47-4.41-3.03 4.18q-.51.65-1 1.02-.49.38-1.42.38-.88 0-1.72-.54-.83-.53-2-1.21-1.16-.67-2.76-1.21-1.61-.53-3.98-.53-3.02 0-5.3 1.09t-3.79 3.14q-1.51 2.05-2.25 4.95-.75 2.91-.75 6.58 0 3.82.82 6.79.81 2.98 2.34 5 1.54 2.02 3.72 3.07 2.19 1.05 4.93 1.05 2.75 0 4.44-.68 1.7-.67 2.86-1.49 1.17-.81 2.03-1.48.86-.68 1.93-.68 1.39 0 2.09 1.07l3.3 4.19q-1.91 2.23-4.14 3.74-2.23 1.51-4.63 2.42-2.39.9-4.92 1.28-2.54.37-5.05.37-4.42 0-8.32-1.65-3.91-1.65-6.84-4.82-2.93-3.16-4.63-7.74-1.69-4.58-1.69-10.44 0-5.25 1.51-9.74t4.44-7.76q2.93-3.28 7.25-5.14 4.33-1.86 9.95-1.86 5.35 0 9.37 1.72 4.03 1.72 7.24 4.93Zm16.69 12.46h21.67q0-2.23-.63-4.21t-1.88-3.46q-1.26-1.49-3.19-2.35-1.93-.86-4.49-.86-4.97 0-7.83 2.83-2.86 2.84-3.65 8.05Zm29.29 6.93h-29.52q.28 3.67 1.3 6.34 1.02 2.68 2.7 4.42 1.67 1.75 3.97 2.61 2.3.86 5.09.86t4.82-.65q2.02-.66 3.53-1.45 1.51-.79 2.65-1.44 1.14-.65 2.21-.65 1.44 0 2.14 1.07l3.3 4.19q-1.91 2.23-4.28 3.74-2.37 1.51-4.95 2.42-2.58.9-5.26 1.28-2.67.37-5.18.37-4.98 0-9.25-1.65-4.28-1.65-7.44-4.89-3.17-3.23-4.98-7.99-1.81-4.77-1.81-11.05 0-4.88 1.58-9.18t4.53-7.49q2.95-3.18 7.21-5.04 4.25-1.86 9.6-1.86 4.51 0 8.33 1.44 3.81 1.44 6.55 4.21 2.75 2.76 4.3 6.79 1.56 4.02 1.56 9.18 0 2.6-.56 3.51-.56.91-2.14.91Zm22.79-46.69v26.51q2.79-2.61 6.14-4.24 3.34-1.62 7.86-1.62 3.9 0 6.92 1.32 3.03 1.33 5.05 3.72 2.02 2.4 3.07 5.72 1.04 3.33 1.04 7.33v30.36h-11.48V246.4q0-4.38-2-6.77-2-2.39-6.09-2.39-2.98 0-5.58 1.34-2.61 1.35-4.93 3.68v34.5h-11.49v-69.1h11.49Zm62.08 20.65q5.3 0 9.64 1.72 4.35 1.72 7.44 4.88 3.1 3.16 4.77 7.72 1.68 4.56 1.68 10.18 0 5.68-1.68 10.23-1.67 4.56-4.77 7.77-3.09 3.21-7.44 4.93-4.34 1.72-9.64 1.72-5.35 0-9.72-1.72-4.37-1.72-7.47-4.93-3.09-3.21-4.79-7.77-1.69-4.55-1.69-10.23 0-5.62 1.69-10.18 1.7-4.56 4.79-7.72 3.1-3.16 7.47-4.88 4.37-1.72 9.72-1.72Zm0 40.31q5.95 0 8.81-4 2.86-4 2.86-11.71 0-7.72-2.86-11.77-2.86-4.04-8.81-4.04-6.05 0-8.96 4.06-2.9 4.07-2.9 11.75 0 7.67 2.9 11.69 2.91 4.02 8.96 4.02Zm32.45-60.96h11.49v69.1h-11.49v-69.1Zm52.92 54.96v-21.39q-1.95-2.37-4.25-3.34-2.31-.98-4.96-.98-2.6 0-4.69.98-2.1.97-3.58 2.95-1.49 1.97-2.28 5.02-.79 3.05-.79 7.19 0 4.18.67 7.09.68 2.9 1.93 4.74 1.26 1.84 3.07 2.65 1.81.81 4.05.81 3.58 0 6.09-1.48 2.51-1.49 4.74-4.24Zm0-54.96h11.49v69.1h-7.03q-2.27 0-2.88-2.09l-.98-4.61q-2.88 3.31-6.62 5.35-3.74 2.05-8.72 2.05-3.91 0-7.16-1.63-3.26-1.63-5.6-4.72-2.35-3.09-3.63-7.65-1.28-4.56-1.28-10.41 0-5.31 1.44-9.86 1.44-4.56 4.14-7.91 2.7-3.35 6.46-5.23 3.77-1.88 8.47-1.88 4 0 6.83 1.25 2.84 1.26 5.07 3.4v-25.16Zm31.9 39.76h21.67q0-2.23-.63-4.21t-1.88-3.46q-1.26-1.49-3.19-2.35-1.93-.86-4.49-.86-4.97 0-7.83 2.83-2.86 2.84-3.65 8.05Zm29.29 6.93h-29.52q.28 3.67 1.3 6.34 1.02 2.68 2.7 4.42 1.67 1.75 3.97 2.61 2.3.86 5.09.86t4.82-.65q2.02-.66 3.53-1.45 1.51-.79 2.65-1.44 1.14-.65 2.21-.65 1.44 0 2.14 1.07l3.3 4.19q-1.91 2.23-4.28 3.74-2.37 1.51-4.95 2.42-2.58.9-5.26 1.28-2.67.37-5.18.37-4.98 0-9.25-1.65-4.28-1.65-7.44-4.89-3.17-3.23-4.98-7.99-1.81-4.77-1.81-11.05 0-4.88 1.58-9.18t4.53-7.49q2.96-3.18 7.21-5.04 4.25-1.86 9.6-1.86 4.51 0 8.33 1.44 3.81 1.44 6.55 4.21 2.75 2.76 4.3 6.79 1.56 4.02 1.56 9.18 0 2.6-.56 3.51-.55.91-2.14.91Zm21.44-22.42.7 5.4q2.23-4.28 5.3-6.72 3.07-2.44 7.25-2.44 3.3 0 5.3 1.44l-.74 8.6q-.23.84-.67 1.19-.45.35-1.19.35-.7 0-2.07-.24-1.37-.23-2.67-.23-1.91 0-3.4.56t-2.67 1.6q-1.19 1.05-2.09 2.54-.91 1.49-1.7 3.39v29.39h-11.49v-47.71h6.75q1.76 0 2.46.63t.93 2.25Z"/></svg>